<svg
    className="product-techno-info-picto"
    width="28px"
    height="28px"
    enableBackground="new 0 0 28 28"
    version="1.1"
    viewBox="0 0 28 28"
    xmlSpace="preserve"
    xmlns="http://www.w3.org/2000/svg<strong>"
>
    <path
        className="path"
        fill='currentColor'
        d="m24.5 17.2h-1.3c-0.1-0.3-0.2-0.6-0.3-0.8 0-0.1-0.1-0.8-0.3-2.1-0.3-2-0.7-5-1-7.2l-0.2-1.3c-0.1-0.9-0.2-1.6-0.2-1.7 0-0.2-0.1-0.4-0.1-0.5-0.1-0.2-0.2-0.4-0.4-0.6-0.1-0.1-0.3-0.2-0.4-0.3l-0.1-0.1c-0.2-0.2-0.9-0.6-1.6-0.9l-1.6-1c-0.1-0.1-0.2-0.1-0.4-0.2-0.3-0.1-0.6-0.2-0.8-0.2h-4.5c-0.3 0-0.6 0.1-0.9 0.2-0.1 0.1-0.3 0.1-0.4 0.2l-1.6 0.8c-0.7 0.4-1.3 0.8-1.6 0.9l-0.1 0.1c-0.2 0.1-0.4 0.2-0.6 0.5-0.1 0.1-0.2 0.3-0.3 0.5s-0.1 0.3-0.1 0.5l-0.8 6.2c-0.2 1.4-0.4 2.9-0.5 4-0.2 1.1-0.3 2-0.3 2.1 0 0.2-0.1 0.5-0.3 0.8h-1.4c-0.4 0-0.7 0.3-0.7 0.7s0.3 0.7 0.7 0.7h22c0.4 0 0.7-0.3 0.7-0.7 0.1-0.2-0.2-0.6-0.6-0.6zm-13.3-15.4h4.5s0.1 0 0.2 0.1c0.1 0 0.2 0.1 0.3 0.1l1.6 0.9c0.7 0.4 1.3 0.8 1.6 0.9 0.1 0.1 0.2 0.1 0.3 0.2l0.1 0.4c0.1 0.7 0.4 3.4 0.8 6 0.2 1.4 0.4 2.8 0.5 3.9v0.2c0.2 1.2 0.3 2 0.3 2.2s0.1 0.4 0.1 0.5h-16c0.1-0.2 0.1-0.4 0.1-0.5 0-0.2 0.1-1 0.3-2.2 0.3-2.5 0.8-6.4 1.1-8.6l0.3-1.9v-0.1s0.1-0.1 0.3-0.2 0.9-0.5 1.6-0.9l1.6-0.9c0.1 0 0.2-0.1 0.2-0.1 0.1 0.1 0.2 0 0.2 0z"
    />
</svg>