<svg
    class="product-techno-info-picto"
    width="28px"
    height="28px"
    enable-background="new 0 0 28 28"
    version="1.1"
    viewBox="0 0 28 28"
    xml:space="preserve"
    xmlns="http://www.w3.org/2000/svg"
>
    <g transform="matrix(0.29787234,0,0,0.29787234,-0.89361702,-5.9574468)">
        <path
            d="M 3 75 L 3 79 L 97 79 L 97 75 L 3 75 z "
            fill='currentColor'
        />
        <path
            d="M 50 20 C 31.536364 20 18.179937 32.173158 13.083984 49.125 L 13.083984 49.128906 C 11.620044 54.043563 11 59.135953 11 64.199219 L 11 76 L 15 76 L 15 64.199219 C 15 59.463773 15.58073 54.759634 16.916016 50.275391 C 21.620063 34.627233 33.263636 24 50 24 C 67.306227 24 79.440247 35.392842 83.662109 51.896484 C 84.610579 55.695327 85 59.733273 85 63.699219 L 85 76 L 89 76 L 89 63.699219 C 89 59.469137 88.590474 55.111895 87.541016 50.914062 L 87.537109 50.904297 C 82.958971 33.007939 69.093773 20 50 20 z "
            fill='currentColor'
        />
        <path
            d="M 48 34 L 48 77 L 52 77 L 52 34 L 48 34 z "
            fill='currentColor'
        />
        <path
            d="M 30.658203 38.685547 C 29.131162 39.3932 28.72368 40.595559 28.251953 41.882812 C 27.780227 43.170066 27.418419 44.720003 27.099609 46.494141 C 26.461991 50.042415 26.025739 54.463593 25.716797 58.820312 C 25.098912 67.533752 25 75.976562 25 75.976562 L 29 76.023438 C 29 76.023438 29.099916 67.665076 29.707031 59.103516 C 30.010589 54.822735 30.44465 50.489225 31.035156 47.203125 C 31.330409 45.560075 31.672898 44.173684 32.007812 43.259766 C 32.342727 42.345848 32.843838 42.0818 32.341797 42.314453 L 30.658203 38.685547 z "
            fill='currentColor'
        />
        <path
            d="M 69.757812 38.693359 L 68.041016 42.306641 C 67.510684 42.054733 68.017397 42.317538 68.337891 43.232422 C 68.658384 44.147306 68.980735 45.533751 69.255859 47.177734 C 69.806109 50.4657 70.19289 54.802505 70.453125 59.083984 C 70.973594 67.646943 71 76.005859 71 76.005859 L 75 75.994141 C 75 75.994141 74.976796 67.553838 74.447266 58.841797 C 74.1825 54.485776 73.794672 50.063987 73.201172 46.517578 C 72.904422 44.744374 72.561928 43.196444 72.111328 41.910156 C 71.660728 40.623869 71.288145 39.420267 69.757812 38.693359 z "
            fill='currentColor'
        />
    </g>
</svg>