<?xml version="1.0" encoding="utf-8"?>
<!-- Generator: Adobe Illustrator 23.0.1, SVG Export Plug-In . SVG Version: 6.00 Build 0)  -->
<svg version="1.1" id="Calque_1" xmlns="http://www.w3.org/2000/svg" xmlns:xlink="http://www.w3.org/1999/xlink" x="0px" y="0px"
	 viewBox="0 0 1122.6 700.6" style="enable-background:new 0 0 1122.6 700.6;" xml:space="preserve">
<style type="text/css">
	.st0{opacity:0.3;}
	.st1{fill-rule:evenodd;clip-rule:evenodd;fill:#FFFFFF;}
	.st2{fill-rule:evenodd;clip-rule:evenodd;fill:#FFFFFF;stroke:#FFFFFF;stroke-width:1.8907;}
	.st3{fill-rule:evenodd;clip-rule:evenodd;fill:#FFFFFF;stroke:#FFFFFF;stroke-width:0.9454;}
</style>
<title>world</title>
<desc>Created with Sketch.</desc>
<g id="Coffee" class="st0">
	<g transform="translate(-192.000000, -2301.000000)">
		<g id="Stacked-Group">
			<g id="Section" transform="translate(0.000000, 2301.000000)">
				<g id="world" transform="translate(186.000000, -263.000000)">
					<polygon id="Fill-1" class="st1" points="632,589.2 630.9,587.2 628.4,586.9 628.2,585.4 628.2,585.5 628.4,586.9 630.9,587.2 
						632,589.2 					"/>
					<polygon id="Fill-2" class="st1" points="628.2,583.5 626.3,580.7 623.3,581.2 622.4,580.9 621.7,582.1 620.6,581.9 
						620.6,581.9 621.7,582.1 622.4,581 623.3,581.2 626.3,580.7 628.2,583.6 					"/>
					<polygon id="Fill-3" class="st1" points="644.6,600.6 644.6,600.6 644.3,599.6 					"/>
					<polygon id="Fill-4" class="st1" points="623.5,576.9 623.5,576.9 622.6,575.2 620.6,574.1 620.6,574.1 622.6,575.3 					"/>
					<polygon id="Fill-5" class="st1" points="587.5,846.3 587.6,846.4 587.8,843.6 587.8,843.5 					"/>
					<polygon id="Fill-6" class="st1" points="640.7,593.1 639,593.1 637.1,591 634.8,591.8 631,590.2 631,590.2 634.8,591.8 
						637.1,591.1 639,593.2 640.7,593.1 645.2,594.6 645.2,595.8 645.2,595.8 645.2,594.5 					"/>
					<polygon id="Fill-7" class="st1" points="587.8,784.9 587.5,785.9 587.6,785.9 587.8,784.9 					"/>
					<polygon id="Fill-8" class="st1" points="576.2,785.5 575.3,784 576.2,785.5 576.9,786.4 578.1,787.8 578.1,787.8 576.9,786.4 
											"/>
					<polygon id="Fill-12" class="st1" points="610.3,558.7 610.8,560.9 610.3,558.6 610.2,558 					"/>
					<polygon id="Fill-13" class="st1" points="766.2,620.4 763.4,613.8 763.3,613.8 766.2,620.4 					"/>
					<polygon id="Fill-14" class="st1" points="612.1,608.4 612.7,608.1 612.9,608.7 612.7,608.1 					"/>
					<polygon id="Fill-15" class="st1" points="617.8,564.6 615.3,563.7 614,564.2 614,564.2 615.3,563.7 617.8,564.6 					"/>
					<polygon id="Fill-16" class="st1" points="609.3,562.8 609.3,562.8 612.1,563.7 612.1,563.7 					"/>
					<polygon id="Fill-17" class="st1" points="765.4,623.3 765.6,625.3 765.2,626.1 765.2,626.1 765.6,625.3 765.4,623.3 					"/>
					<polygon id="Fill-18" class="st1" points="774.2,588 775.8,588.8 777.2,591.6 779.2,592.5 780.4,594.6 784.1,593.9 
						785.6,596.8 785.6,596.8 786.8,596.4 786.8,596.4 789.8,595.6 789.8,595.6 786.8,596.4 785.7,596.8 784.1,593.9 780.4,594.5 
						779.2,592.5 777.2,591.6 775.8,588.8 774.3,588 770.1,589.2 766.2,586.4 766.2,586.4 770.1,589.2 					"/>
					<polygon id="Fill-19" class="st1" points="620.8,836.6 619.4,832.2 619.3,832.2 620.8,836.6 621.6,838.8 621,842.3 
						621.3,843.5 619.8,842.9 618.9,843.1 618.6,844 617.8,845.2 617.8,846.4 617.8,846.4 617.8,845.3 618.6,844 618.9,843.1 
						619.8,842.9 621.3,843.5 621,842.3 621.6,838.8 					"/>
					<polygon id="Fill-20" class="st1" points="691.5,690.4 692,690.8 692,690.8 691.5,690.4 					"/>
					<polygon id="Fill-21" class="st1" points="627.2,735.2 627.3,737.6 627.2,734.8 					"/>
					<polygon id="Fill-22" class="st1" points="783.2,599.3 783.2,599.3 783.7,598.7 					"/>
					<polygon id="Fill-23" class="st1" points="592.3,793.4 591.6,792.3 591.5,790.5 591.8,788.8 591.4,787.7 591.3,785.9 
						591.3,785.9 591.4,787.7 591.8,788.8 591.5,790.5 591.6,792.3 592.3,793.4 					"/>
					<polygon id="Fill-24" class="st1" points="770.9,612.9 773.7,605.3 773.7,605.3 770.9,612.9 					"/>
					<polygon id="Fill-25" class="st1" points="779.4,606.2 779.4,606.2 780.3,604.2 780.4,599.6 780.3,599.6 780.3,604.2 					"/>
					<polygon id="Fill-26" class="st1" points="607.4,554.2 607.4,554.3 608.3,555.2 608.3,555.2 					"/>
					<polygon id="Fill-27" class="st1" points="597.9,797.2 597.9,797.2 597.6,796.4 596.2,796.3 594.4,796.6 593,796.6 
						592.3,796.8 592.3,796.8 593,796.6 594.3,796.6 596.2,796.3 597.6,796.4 					"/>
					<polygon id="Fill-28" class="st1" points="591.3,812.3 591.3,812.3 593.2,814.5 595.1,816.1 595.1,816.1 593.2,814.5 					"/>
					<polygon id="Fill-29" class="st1" points="618.7,848.3 618.7,848.3 617.8,847.3 					"/>
					<polygon id="Fill-30" class="st1" points="597.9,801.9 598.2,802.9 598.2,802.9 597.9,801.9 					"/>
					<polygon id="Fill-31" class="st1" points="597.9,799.1 598.4,800 598.4,800 597.9,799.1 					"/>
					<polygon id="Fill-32" class="st1" points="611.2,858.2 611.2,858.2 612.1,857.7 612.1,857.7 					"/>
					<polygon id="Fill-33" class="st1" points="607.9,855.8 607.4,856.3 610.2,858.7 610.2,858.7 607.4,856.3 					"/>
					<polygon id="Fill-34" class="st1" points="620.6,573.1 619.5,572.3 617.8,569.4 617.8,569.4 619.5,572.3 620.6,573.2 					"/>
					<path id="Fill-35" class="st1" d="M366.2,756.6L366.2,756.6L366.2,756.6z M365.4,757.5L365.4,757.5l0.7-1L365.4,757.5z"/>
					<polygon id="Fill-36" class="st1" points="356,842.8 353.2,848.2 353.2,848.3 356,842.8 355.9,842.6 					"/>
					<polygon id="Fill-37" class="st1" points="353.2,868.8 353.2,868.8 353.7,868.1 353.7,868.1 					"/>
					<polygon id="Fill-38" class="st1" points="326.1,834.1 326.1,834.1 326.5,834.9 325.5,838.3 322.3,839.9 322.4,845.3 
						321.8,846.4 322.7,847.7 320.6,849.8 318.7,852.9 317.7,856 317.9,859.3 316.2,862.8 317.5,868.9 318.2,869.5 318.2,872.8 
						316.6,876.3 316.6,879.4 314.4,881.8 314.5,885.2 315.3,888.9 313.6,890.2 312.8,893.7 312.1,897.6 312.6,902.4 311.5,903.3 
						312.1,907.9 313.4,909.5 312.5,911.2 313.8,912 314.1,913.6 312.9,914.4 313.2,916.9 312.1,922.6 310.6,926.3 310.9,928.5 
						310,931.4 307.8,933.4 308,938.3 309.1,940 309.1,939.9 308.1,938.3 307.8,933.4 310.1,931.4 311,928.5 310.6,926.3 
						312.2,922.6 313.2,916.9 312.9,914.4 314.2,913.6 313.9,912.1 312.5,911.2 313.5,909.5 312.2,907.9 311.5,903.3 312.7,902.5 
						312.2,897.6 312.9,893.7 313.6,890.2 315.4,888.9 314.5,885.2 314.5,881.8 316.7,879.4 316.6,876.3 318.3,872.8 318.3,869.5 
						317.5,868.9 316.2,862.9 318,859.3 317.7,856 318.8,852.9 320.7,849.8 322.7,847.7 321.8,846.4 322.5,845.4 322.4,839.9 
						325.5,838.3 326.5,834.9 326.2,834.1 328.6,831.2 328.5,831.2 					"/>
					<path id="Fill-39" class="st1" d="M856.9,762.4l-0.9-0.2L856.9,762.4z"/>
					<path id="Fill-40" class="st1" d="M863.5,761l-2.8-0.7L863.5,761z"/>
					<polygon id="Fill-41" class="st1" points="312.6,940 312.6,940 312.5,943.6 313.4,946.6 313.5,946.6 312.6,943.7 					"/>
					<polygon id="Fill-42" class="st1" points="367.7,758.2 367.3,757.5 367.3,757.5 					"/>
					<polygon id="Fill-43" class="st1" points="367.3,847 364.7,848.8 362.6,850.1 359.2,853.2 355,857.7 355,857.7 359.1,853.2 
						362.6,850.1 364.7,848.8 367.3,847 367.3,844.5 367.3,844.5 					"/>
					<polygon id="Fill-44" class="st1" points="314.4,613 314.4,613 315.2,612.9 315.2,612.9 					"/>
					<polygon id="Fill-45" class="st1" points="308.8,614.8 304.1,614.8 304,614.8 308.7,614.8 314.4,614.8 314.4,614.8 					"/>
					<polygon id="Fill-46" class="st1" points="231.8,681.8 231.8,681.9 231.2,679 231.2,679 					"/>
					<polygon id="Fill-47" class="st1" points="321,603.5 321.9,604.4 321.9,604.3 321.1,603.4 					"/>
					<polygon id="Fill-48" class="st1" points="291.9,622.1 292,622.1 293.3,621.7 295.6,621.8 298,622.1 300.2,620.9 300,619.4 
						299.7,618.9 299.8,618.8 299.8,618.8 299.2,618.5 298.3,619.1 297.4,619.9 296.1,619.2 293.7,619.7 291.6,620.2 290.7,620.7 
						289.8,622 291,622.3 					"/>
					<polygon id="Fill-49" class="st1" points="186.1,662 185.9,662.6 185.9,662.6 186.1,662 					"/>
					<polygon id="Fill-50" class="st1" points="244,596.6 245,597.4 247.1,597.7 250.2,598.5 253.1,599.9 255.6,599.3 259.3,600.5 
						256.2,602 254.1,603.8 252,605.7 252,606.4 255,605.4 256.9,607 259.2,605.8 261.7,604.4 264.3,602.9 263.4,605.2 265.1,605.8 
						267.2,607.5 269.9,606.5 272.9,606.1 273.5,607.4 274.4,607.6 275.3,607.7 276.8,609.5 274.1,609.9 274,609.9 271.6,609.4 
						269.2,610.3 267.2,610.7 265.4,613.5 264.2,615.1 264.6,615.6 266.8,612.8 267.3,612.8 265.7,616.1 265,619.1 264.5,621.5 
						264.8,623.5 264.7,624.6 264.8,625.6 265.6,627.8 265.9,628.1 266.9,628.1 267.7,627.6 268.3,627.1 269.6,625 269.6,622.3 
						268.6,619.6 268.8,617.8 269.6,615.7 270.3,614.3 271.5,613.2 271.8,614.7 272.4,612.5 273,612.1 273.5,610.4 276,611.3 
						278.3,613 278.5,615 278.2,617 276.6,618.7 276.7,619.7 277.3,619.8 279.2,617.9 280.3,618.3 280.9,620.8 281,622.5 
						279.6,624.8 278.9,626.3 277.9,627.9 279.8,628.7 281.3,628.9 283.5,628.4 285.3,627.2 286.8,626.7 289.1,625.5 291.7,623 
						291.7,622.6 291.7,622.6 289.1,623.1 287.6,623.6 286.8,624.2 285.2,623.8 284.3,624 282.9,625.2 280.7,626.5 279,626.2 
						279.7,624.8 281.1,622.5 283.1,621.1 283.3,619.9 283.2,617.9 284.6,615.5 284.2,612.8 285.8,615.4 288.2,616 289.2,614.6 
						287.2,611.3 286.3,609.9 283.5,609 281.1,608.6 278.8,608.5 276.5,608 275.9,607 275.4,607.6 274.5,607.5 275.2,606 
						273.9,605.4 274.4,603.7 273.2,602.4 273.8,601.1 270.4,600.4 269.3,597.8 268.6,597.1 266.5,597 263.7,596.1 263,596.7 
						262.4,597.8 260.6,598.6 259.4,600.4 255.7,599.2 253.2,599.8 250.3,598.4 247.2,597.6 245.1,597.3 244.1,596.5 243.6,594 
						242.6,594 242.6,594.1 243.5,594.1 					"/>
					<polygon id="Fill-51" class="st1" points="594.8,596.8 594.9,596.8 594.2,594 					"/>
					<polygon id="Fill-52" class="st1" points="593.2,596.9 592.9,596.8 592.3,597.7 592.9,596.8 					"/>
					<polygon id="Fill-53" class="st1" points="594.4,571.3 594.4,571.3 594.2,570.3 					"/>
					<polygon id="Fill-54" class="st1" points="598.2,628.9 595.9,630 593.9,629.9 593.3,630 592.9,630.6 591.4,630.6 590.3,631.4 
						588.5,631.7 588.5,631.8 590.3,631.4 591.4,630.6 592.9,630.7 593.3,630 593.9,629.9 595.9,630 598.2,629 600.1,630.3 
						602.7,630 602.7,629.9 600.1,630.2 					"/>
					<polygon id="Fill-55" class="st1" points="588.5,572.2 588.5,572.2 588.6,572.2 					"/>
					<path id="Fill-56" class="st1" d="M594.2,570.3l0.3-0.9L594.2,570.3z"/>
					<polygon id="Fill-57" class="st1" points="587.6,633.2 587.5,633.3 588.4,632.8 588.4,632.7 					"/>
					<polygon id="Fill-58" class="st1" points="599.8,602.5 598.9,601.5 599.8,602.5 					"/>
					<polygon id="Fill-63" class="st1" points="604.6,627.7 604.6,627.8 606.1,628.9 604.6,627.7 608,626.1 610.2,626.6 
						607.9,626.1 					"/>
					<polygon id="Fill-64" class="st1" points="547.7,603.4 547.7,603.4 547.8,604.6 545.1,607.1 545,609.1 545,609.1 545.1,607.1 
						547.9,604.5 					"/>
					<polygon id="Fill-65" class="st1" points="548.5,602.7 548.8,599.6 548.5,602.7 547.9,603.4 547.9,603.4 					"/>
					<polygon id="Fill-66" class="st1" points="559.2,605.1 558.8,606 557.1,605.3 556.9,607.1 555.6,607.9 553.5,607.3 
						552.8,609.1 551.5,609.2 551,608.5 549.4,610 548,610.2 546.7,609.3 545.7,607.4 545,607.7 545.7,607.4 546.7,609.3 
						546.6,610.5 547.5,612.1 546.5,613.4 547.2,616.6 547.2,616.6 546.5,613.4 547.5,612.1 546.6,610.5 546.7,609.3 548,610.2 
						549.4,610 551,608.5 551.5,609.2 552.9,609.1 553.5,607.3 555.6,607.9 556.9,607.2 557.1,605.4 558.8,606 559.2,605.2 
						562,604.4 562,604.4 					"/>
					<polygon id="Fill-67" class="st1" points="817.2,592 815,594.9 810.9,593.6 808.1,593.4 806.2,590.9 803.2,590.9 800.8,589.2 
						796.4,591.7 796.4,591.7 800.7,589.3 803.2,590.9 806.2,590.9 808.1,593.4 810.9,593.6 815,594.9 					"/>
					<polygon id="Fill-68" class="st1" points="812.5,624.3 815.3,624.2 815.3,624.2 					"/>
					<polygon id="Fill-69" class="st1" points="816.3,691.8 816.3,691.8 819.1,691.3 819.1,691.3 					"/>
					<polygon id="Fill-70" class="st1" points="811.6,672.4 810.6,673.1 811.6,672.4 813.4,675.3 					"/>
					<polygon id="Fill-71" class="st1" points="821.9,624.7 821.9,624.7 825.7,624.2 825.7,624.2 					"/>
					<polygon id="Fill-72" class="st1" points="817.9,678.2 817,676.4 815.4,676.7 812.5,676.2 812.5,676.2 815.4,676.7 817,676.4 
						817.9,678.3 819.1,679 819.1,679 819.1,679 					"/>
					<polygon id="Fill-73" class="st1" points="820.1,694.2 821,694.7 821,694.7 820,694.2 					"/>
					<polygon id="Fill-74" class="st1" points="809.6,675 809.7,675 806.8,674.3 					"/>
					<polygon id="Fill-75" class="st1" points="826.7,747.4 827.6,747.1 827.6,747.1 					"/>
					<polygon id="Fill-76" class="st1" points="789.8,678.1 790,680.9 790,680.9 789.8,678.1 					"/>
					<polygon id="Fill-77" class="st1" points="785.2,677.8 781.8,677 779.3,675.5 777,674.9 776,673.3 774.3,672.8 771.2,670.6 
						768.8,669.6 767.6,670.4 763.4,668 760.4,665.8 759.6,662 759.6,662 760.4,665.8 763.4,668 767.6,670.4 768.8,669.6 
						771.2,670.6 774.3,672.8 776,673.3 777,674.9 779.3,675.5 781.8,677 785.2,677.8 788.7,678.1 789.8,677.7 788.7,678.1 					"/>
					<polygon id="Fill-78" class="st1" points="824.5,697.9 823.2,697.6 821,697 821,697 823.2,697.6 824.5,697.9 826.7,697.5 
						826.7,697.4 					"/>
					<polygon id="Fill-79" class="st1" points="876.8,594 873,593 873,593 876.7,594 					"/>
					<polygon id="Fill-80" class="st1" points="796,677.6 793.6,677.1 793.6,677.1 796,677.6 797.8,677.6 799.3,678.1 797.8,677.6 
											"/>
					<polygon id="Fill-81" class="st1" points="915.5,614.8 916.2,618 915.8,622.3 915.8,622.3 916.2,618 915.5,614.8 					"/>
					<polygon id="Fill-82" class="st1" points="759.6,628.9 758.6,629.9 758.6,629.9 759.6,628.9 					"/>
					<polygon id="Fill-83" class="st1" points="876.8,600.6 876.8,600.6 879.4,602.1 882.4,605.5 882.1,607.2 882.4,605.5 
						879.4,602.1 					"/>
					<polygon id="Fill-84" class="st1" points="842.7,697 842.9,697.1 842.7,697 					"/>
					<polygon id="Fill-85" class="st1" points="904.6,628.8 903.2,628 903.2,628 904.6,628.8 907,628.9 907,628.9 					"/>
					<polygon id="Fill-86" class="st1" points="871.4,612 866.6,613.6 863.5,615.7 863.5,615.7 866.6,613.6 871.4,612 873.6,609.3 
						875.8,608.1 873.6,609.3 					"/>
					<polygon id="Fill-87" class="st1" points="873.9,602.4 874.3,602.5 876.8,601.5 874.3,602.5 					"/>
					<polygon id="Fill-88" class="st1" points="667.9,590.2 665,595.8 665.1,595.8 					"/>
					<polygon id="Fill-89" class="st1" points="906.1,627 908.9,626.1 906.1,627 					"/>
					<polygon id="Fill-90" class="st1" points="871.1,603 871.1,603 872,602.5 872,602.5 					"/>
					<polygon id="Fill-91" class="st1" points="838.6,692.3 836.1,693.9 833.2,694.3 830.9,694.2 829.3,695 827.8,695.4 
						828.2,698.9 826.7,698.8 826.7,698.8 828.2,698.9 827.8,695.4 829.3,695 830.9,694.2 833.3,694.3 836.1,693.9 838.6,692.3 
						840.1,693.4 842.7,694 842.7,694 840,693.4 					"/>
					<polygon id="Fill-92" class="st1" points="867.9,591.4 869.4,592.9 873,592.5 873,592.5 869.4,592.9 867.9,591.4 866.1,590.9 
						861.7,594 857.8,594.7 855,595.8 851.3,595.1 848.5,595.2 846.7,592.9 843.8,590.7 840.8,590.1 837,590.7 834.2,591.6 
						830,589.7 829.4,586.3 825.9,585.1 823.2,584.5 819.9,582.6 819.1,583.8 819.9,582.6 823.2,584.6 825.9,585.1 829.4,586.3 
						830,589.7 834.2,591.6 837,590.8 840.8,590.2 843.8,590.8 846.7,592.9 848.5,595.2 851.3,595.1 855,595.8 857.8,594.8 
						861.7,594 866.1,590.9 					"/>
					<polygon id="Fill-93" class="st1" points="920.4,602.5 915.9,602.5 914.7,598.2 911.2,594.9 906.1,593.4 905,588.8 904,585.9 
						902.9,583.8 901.1,578.8 898.5,576.9 898.5,576.9 901.1,578.8 902.9,583.8 904,585.9 905,588.8 906.1,593.5 911.2,594.9 
						914.7,598.2 915.9,602.5 920.4,602.5 922.9,600.7 927.8,599.4 926.2,603.4 926.3,603.4 927.8,599.3 922.9,600.7 					"/>
					<polygon id="Fill-94" class="st1" points="924,610.4 922.1,614.8 924,610.3 925,605.3 925,605.3 					"/>
					<polygon id="Fill-95" class="st1" points="857.3,617.4 858.2,619 858.7,620.4 856.6,621.7 854.6,623.9 851.2,625.3 
						846.9,625.4 842.3,626.8 839,628.9 839,628.9 842.3,626.8 846.9,625.4 851.2,625.3 854.6,623.9 856.7,621.7 858.7,620.4 
						858.2,619 857.3,617.4 858.8,614.8 858.8,614.8 					"/>
					<polygon id="Fill-96" class="st1" points="662.2,638.8 660.8,637 660.3,635.5 660.3,635.6 660.8,637 662.2,638.8 664.1,639.3 
											"/>
					<polygon id="Fill-97" class="st1" points="660.3,634.7 657.5,635.8 658.6,639.3 657.5,635.8 660.3,634.7 658.7,633.7 					"/>
					<polygon id="Fill-98" class="st1" points="761.2,660.1 761.2,660.1 760.5,659.2 					"/>
					<polygon id="Fill-99" class="st1" points="657.4,640.3 657.4,640.3 656.8,641.7 658.4,645.2 657,645.9 655.9,644.8 
						652.5,644.3 651.2,644.9 647.8,645.6 646.1,645.5 646.1,645.5 647.8,645.6 651.2,644.9 652.5,644.3 655.9,644.8 657,645.9 
						658.4,645.2 656.8,641.7 					"/>
					<path id="Fill-100" class="st1" d="M663.2,638l0-0.5L663.2,638z"/>
					<polygon id="Fill-101" class="st1" points="662.4,631.3 664.1,631.5 664.1,631.5 662.4,631.3 661.3,630.8 					"/>
					<polygon id="Fill-102" class="st1" points="662.6,636.1 661.3,635.5 661.3,635.6 662.7,636.1 664.1,636.5 664.1,636.5 					"/>
					<polygon id="Fill-103" class="st1" points="661.3,632.7 662.2,633.7 662.2,633.7 661.3,632.7 					"/>
					<polygon id="Fill-104" class="st1" points="665,595.9 665,595.8 664.1,599.6 664.1,599.6 					"/>
					<polygon id="Fill-105" class="st1" points="660.3,630.8 661.3,631.4 661.3,631.4 660.3,630.8 					"/>
					<polygon id="Fill-106" class="st1" points="663.7,627.4 663.7,627.4 664.5,627.6 666.6,630.5 667.9,630.8 666.6,630.5 
						664.5,627.6 663.7,627.4 661.8,626.3 661.3,625.2 661.8,626.3 					"/>
					<polygon id="Fill-107" class="st1" points="669.8,639.3 670.7,640.3 669.8,639.3 					"/>
					<polygon id="Fill-108" class="st1" points="661.3,624.7 661.3,624.7 660.3,624.2 					"/>
					<polygon id="Fill-109" class="st1" points="657.5,624.8 657.5,624.8 658.4,624.2 658.4,624.2 					"/>
					<polygon id="Fill-110" class="st1" points="667.9,636.5 667,636.8 664.1,639.3 664.1,639.3 667,636.8 667.9,636.5 					"/>
					<path id="Fill-111" class="st1" d="M746.7,636.4l-0.4-0.8L746.7,636.4z"/>
					<polygon id="Fill-112" class="st1" points="745.2,639.8 744.4,636.5 744.5,636.5 744.4,636.5 745.2,639.8 746.3,639.5 
						748.2,640.3 748.2,640.3 746.3,639.5 					"/>
					<polygon id="Fill-113" class="st1" points="750.1,645.9 750.1,646 752.9,646.9 752.9,646.9 					"/>
					<polygon id="Fill-114" class="st1" points="706.6,579.8 706.6,579.8 709.5,578.8 709.5,578.8 					"/>
					<polygon id="Fill-115" class="st1" points="764.3,587.3 757.7,575.1 753.9,571.3 753.9,571.3 757.7,575.1 764.3,587.3 					"/>
					<polygon id="Fill-116" class="st1" points="670.4,638.3 670.4,638.3 669.8,637.4 					"/>
					<polygon id="Fill-117" class="st1" points="754.8,629.9 753.9,632.7 753.9,632.7 754.8,629.9 					"/>
					<polygon id="Fill-118" class="st1" points="753.8,572.5 754.8,571 747.4,575.7 744.5,576 744.8,573.3 741,571.6 737.9,572.8 
						736.9,567.6 731.6,566.5 728.9,568.6 721.5,570.5 720.1,571.7 708.9,573.4 707.6,575.1 707.6,575.1 708.9,573.5 720,571.8 
						721.5,570.5 728.9,568.7 731.6,566.6 736.9,567.7 737.9,572.8 741,571.6 744.8,573.3 744.5,576 747.4,575.7 754.8,571.1 					
						"/>
					<polygon id="Fill-119" class="st1" points="752.9,650.7 752.9,650.7 758.6,651.6 758.6,651.6 					"/>
					<polygon id="Fill-120" class="st1" points="707.6,580.7 704.7,583.5 704.8,583.6 707.6,580.7 					"/>
					<polygon id="Fill-121" class="st1" points="703.8,590.2 704.6,589.3 709.5,589.4 709.5,589.4 704.7,589.2 					"/>
					<polygon id="Fill-122" class="st1" points="685.7,625 683.3,626 683,628.9 682.1,626.4 682,625.4 682.7,623.7 682.1,622.3 
						678.7,620.9 677.4,617.2 675.8,616.2 675.7,614.8 678.5,615.2 678.6,612.1 681.1,611.4 683.7,612.1 684.2,607.9 683.7,605.2 
						680.8,605.4 678.3,604.4 674.9,606.3 672.2,607.2 670.8,609.7 668,610.4 665,614.8 667.7,618.7 667.4,621.5 670.6,626.3 
						672.2,628.4 673.7,631.2 675,631.3 675.9,632.4 673.5,632.7 673,635.7 672.5,637.1 671.4,638 671.5,639.8 670.8,640 
						671.5,639.9 672.4,642.6 675.2,643.4 677.3,645.3 681.4,645.9 686,645 686.3,644.1 685.7,641.4 686.2,637.5 683.9,636.1 
						684.6,633.5 682.7,633.3 683.3,630 686.1,630.9 688.7,629.7 686.5,627.3 					"/>
					<polygon id="Fill-123" class="st1" points="670.7,606.1 670.8,605.3 670.8,605.3 					"/>
					<polygon id="Fill-124" class="st1" points="695.3,587 692.1,589.2 688.6,587.1 682.1,583.6 677.4,583.7 671.3,589.3 670.9,593 
						667.9,590.1 667.9,590.1 670.9,593 671.3,589.3 677.4,583.7 682.1,583.6 688.6,587.2 692.1,589.2 695.3,587.1 700,587 
						703.8,589.6 703.8,589.6 700,586.9 					"/>
					<polygon id="Fill-125" class="st1" points="318.3,949.6 317.4,953.1 315.8,955.4 311.7,953.6 307.5,950.2 305,949.1 
						309.1,954.8 312.3,957.6 316.1,960.6 319.3,961.4 321.5,963 323.3,963.4 324.8,963.6 327.4,961.9 328.4,959.8 326.6,959.6 
						326.6,959.6 328.4,959.8 330,961.7 332.9,961.4 334.3,958.7 330,957.4 326,954.3 324.5,950.5 323.3,948.1 323.3,959.6 
						323.3,959.6 323.3,948.1 321.1,947.5 					"/>
					<polygon id="Fill-126" class="st1" points="980.5,846.6 980.4,844.8 979.5,842.1 977.2,839.4 975.9,838.2 973.8,836.2 
						973.3,832.8 972.5,833.2 971.3,831.8 970.1,832.5 969,829.1 967.3,827.1 967.7,826.3 965.7,824.9 963.6,823.4 960.4,821.8 
						959.4,819.7 959.7,818 958.9,815.4 958.2,815 957.7,813.4 957.1,810.8 957.4,809.4 956,808.2 955,806.9 953.1,808.1 952,805.7 
						952.1,804.6 951.9,802.8 950.8,801.3 950.7,800 949.9,799.6 949.7,797.7 948.9,796.3 947.8,797.4 947.7,798.3 947.2,799.9 
						946.5,801.5 946.9,802.6 946.4,803.2 946,805.5 946.3,807.2 946.1,808.1 946.5,809.6 945.6,812.1 945.2,813.8 944.6,815.2 
						944.1,816.8 942.1,817.9 939.3,816.8 938.8,815.9 937.3,815.1 936.4,815.1 934.3,813.2 932.8,812.2 930.5,811.2 928.1,809.5 
						927.9,808.6 929,807.1 929.8,805.6 929.5,804.3 930.5,804.2 931.6,803 932.4,801.4 931.1,799.9 930.4,800.4 929.3,800.2 
						927.5,801 925.7,800.1 924.8,800.4 922.4,799.6 920.8,798.4 918.8,797.6 917.2,798.1 919.4,799.1 919.5,800.6 917,801.2 
						915.5,800.8 913.7,801.9 912.4,803.7 912.8,804.4 911.5,805.2 910.1,807.7 910.7,809.4 908.8,809.1 907,809.1 905.3,807.2 
						903.2,805.8 901.7,806.2 900.4,806.7 900.4,807.4 899.1,807.1 899,807.9 897.5,808.5 896.8,809.7 895.2,811.2 894.9,813.6 
						893.5,812.9 892.6,814.4 893.7,815.9 892.4,816.5 891.2,813.8 889.1,816.4 889,818.1 888.9,819.4 887.2,821 886.4,822.7 
						884.8,824.1 881.7,825 880,824.9 879.3,825.2 878.8,825.9 877,826.3 874.7,827.5 873.9,827.1 872.5,827.3 870.3,828.5 
						868.8,829.8 866.4,830.9 865.2,833.1 865,830.7 863.7,833 864,834.9 863.6,836.5 863,837.3 862.7,839.2 863.4,840.2 
						863.7,841.2 865.2,843.8 865.2,845.5 864.3,844.2 862.9,843.3 863.9,846.4 862.6,844.9 863,846.3 864.7,849 865.1,851.6 
						866.4,853 866.4,854 867.6,856.2 867.5,858.1 868,860.1 869.5,863.6 869.9,865.7 869.5,868.2 869.6,869.5 869.1,870.3 
						867.6,870.8 867.6,872.8 869.2,873.5 872.3,875.8 874.3,875.8 876.5,876 877.9,874.8 879.4,873.8 880.2,873.9 882,872 
						884,871.9 886.2,871.5 888.8,872.1 890.6,871.8 893.1,871.7 894.2,870.3 894.8,868.4 897.4,867.6 900.5,865.7 903.3,866 
						906.7,864.8 910.5,863.5 915.8,863.2 918.7,864.9 920.8,865 924.6,867.2 924,868 925.6,869.3 927.4,871.9 927.3,873.8 
						929.6,875.3 930.8,872.4 932.6,871.2 935,868.2 935.3,870.8 934.1,872.6 933.7,874.7 932.1,876.7 934.8,876 936.2,873.5 
						936.9,876.2 935.9,878 938.8,878.4 940.3,879.9 940.9,881.8 941.5,884.6 943.4,886.9 946.3,888 948,888.3 949.6,888.9 
						952.2,889.9 954.8,887.2 956.4,886.5 955.9,888.4 957.7,889.1 960.2,890.8 962,889.2 963.3,887.7 966.1,886.1 969.4,886 
						971.1,884.7 970.9,883.5 971.3,880.9 972.1,878.2 973.2,876.3 974.1,873.2 975.1,871.4 976.2,868.7 978.4,866.9 979.7,863.7 
						980.2,861.2 980.2,859.2 981,856.2 981.5,854.6 981.7,851.6 980.3,848.7 					"/>
					<polygon id="Fill-127" class="st1" points="965.6,896 963.3,896.8 961.8,897.3 959,895.9 957.2,895.5 957.1,897.4 958.7,901 
						959.1,903.8 960.9,907.4 962.6,907.6 963.2,907.8 965.2,904.8 966.2,906 966.5,902.6 967.5,901.2 967.3,896.2 					"/>
					<path id="Fill-128" class="st2" d="M367.2,757L367.2,757l0.4,0.8L367.2,757z M366.9,846.7l-2.5,1.8l-2,1.4l-3.4,3.3l-4,4.6l0,0
						l4-4.6l3.3-3.3l2-1.4L366.9,846.7l0.1-2.6h0L366.9,846.7z M352.2,847.4L352.2,847.4l2.9-5l-0.1-0.2l0.1,0.2L352.2,847.4z
						 M353,868.4L353,868.4l0.6-0.8v0L353,868.4z M365.1,755.8L365.1,755.8L365.1,755.8l-0.7,1.3l0,0L365.1,755.8z M327,833l0.4,0.8
						l-1,3.4l-3.2,1.6l0.1,5.5l-0.6,1.1l0.9,1.3l-2.1,2.1l-1.9,3.1l-1.1,3.1l0.3,3.3l-1.8,3.5l1.4,6l0.8,0.6l0,3.3l-1.7,3.5l0.1,3
						l-2.2,2.4l0,3.4l0.9,3.7l-1.8,1.4l-0.8,3.4l-0.7,4l0.5,4.8l-1.2,0.8l0.7,4.7l1.3,1.6l-1,1.7l1.4,0.8l0.3,1.6l-1.3,0.8l0.3,2.5
						l-1.1,5.7l-1.6,3.7l0.3,2.2l-0.9,2.8l-2.3,2l0.3,4.9l1,1.7l0,0l-1-1.7l-0.3-4.9l2.3-2l0.9-2.8l-0.3-2.2l1.6-3.7l1.1-5.7
						l-0.3-2.5l1.3-0.8l-0.3-1.6l-1.4-0.8l1-1.7l-1.3-1.6l-0.7-4.7l1.2-0.8l-0.5-4.8l0.7-4l0.8-3.4l1.8-1.4l-0.9-3.7l0-3.4l2.2-2.4
						l-0.1-3l1.7-3.5l0-3.3l-0.8-0.6l-1.4-6l1.8-3.5l-0.3-3.3l1.1-3.1l1.9-3.1l2.1-2.1l-0.9-1.3l0.6-1.1l-0.1-5.5l3.2-1.6l1-3.4
						L327,833L327,833l2.4-2.9l0.1,0L327,833z M312.7,945l-1.2-2.8l0.1-3.5l0.1,0l-0.1,3.5L312.7,945L312.7,945z M231.4,681.4
						l-0.6-2.3l0,0L231.4,681.4L231.4,681.4z M185.3,662L185.3,662l0.2-0.6l0,0L185.3,662z M243.7,595.1l1,0l0.5,2.5l0.9,0.8
						l2.1,0.3l3,0.7l2.9,1.4l2.4-0.6l3.7,1.2l1.2-1.8l1.7-0.7l0.7-1.1l0.7-0.6l2.8,0.9l2,0.1l0.7,0.6l1,2.5l3.3,0.7l-0.5,1.3
						l1.2,1.3l-0.5,1.7l1.2,0.5l-0.6,1.5l0.8,0.1l0.6-0.6l0.6,1l2.2,0.5l2.3,0l2.4,0.4l2.7,0.8l1,1.3l1.9,3.2l-1,1.4l-2.4-0.6
						l-1.5-2.6l0.4,2.6l-1.4,2.3l0.2,2l-0.2,1.1l-1.9,1.3l-1.4,2.2l-0.7,1.4l1.6,0.3l2.2-1.3l1.3-1.1l0.9-0.2l1.6,0.4l0.8-0.6
						l1.5-0.5l2.5-0.5l0,0l0.1,0.4l-2.6,2.4l-2.2,1.2l-1.5,0.5l-1.8,1.1l-2.1,0.5l-1.5-0.2l-1.8-0.8l1-1.5l0.7-1.4l1.4-2.2l-0.1-1.7
						l-0.5-2.4l-1.1-0.4l-1.8,1.8l-0.6,0l-0.1-1l1.6-1.7l0.3-1.9l-0.2-1.9l-2.2-1.6L274,611l-0.4,1.6L273,613l-0.5,2.1l-0.3-1.4
						l-1.2,1l-0.7,1.4l-0.8,2l-0.1,1.7l1,2.5l-0.1,2.7l-1.2,2l-0.6,0.6l-0.8,0.4l-1,0l-0.3-0.3l-0.8-2.1l0-1l0.1-1l-0.4-2l0.6-2.3
						l0.7-2.9l1.5-3.2l-0.4,0l-2.2,2.7l-0.4-0.5l1.2-1.5l1.8-2.7l2-0.4l2.3-0.9l2.3,0.4l0.1,0l2.6-0.4l-1.5-1.7l-0.8-0.1l-0.9-0.2
						l-0.6-1.2l-2.9,0.4l-2.6,1l-2.1-1.6l-1.7-0.6l1-2.3l-2.6,1.5l-2.4,1.4l-2.3,1.1l-1.8-1.5l-3,0.9l0-0.6l2-1.8l2.1-1.8l3-1.5
						l-3.7-1.2l-2.4,0.6l-2.9-1.4l-3-0.7l-2.1-0.3l-0.9-0.8l-0.5-2.5L243.7,595.1L243.7,595.1z M290.3,619.9l0.9-0.5l2.1-0.6
						l2.5-0.6l1.3,0.8l0.8-0.9l0.9-0.6l0.6,0.3l0,0l-0.1,0.1l0.3,0.6l0.2,1.6l-2.2,1.3l-2.4-0.3L293,621l-1.3,0.4l-0.1,0l-0.9,0.2
						l-1.2-0.4L290.3,619.9z M304,614.3l4.5,0h5.4l0,0h-5.5H304L304,614.3z M314.3,613.2l0.9-0.2l0,0L314.3,613.2L314.3,613.2z
						 M320.7,603.7l1,1.1l-0.1,0L320.7,603.7L320.7,603.7z M421.6,780.1l-1.1-0.9L418,779l-2.3-0.8l-3.8-3.3l-4.4-2.5l-4.4,0.1
						l-5.8-1.6l-3.5,0.9l0.5-1.6l-1.5-1.7l-4.9-1.8l-3.7-1.1l-2.3,1.9l-0.1-3l-5.3-0.5l-0.9-0.9l2.2-2.4l-0.1-2l-1.6-0.5l-1.7-5.2
						l-0.7-1.6l-1,0.1l-1.8,2.7l-0.9,2.2l0.9-2.2l1.8-2.7l-0.5-1.2l-3.1-2.5l-2.2-0.7l-1-0.3l-1.5,2.6l0,0l1.5-2.6l-3.2-0.8
						l-2.4,0.2l-0.3,0.5l-3.6-0.6l-1.2-1l-1.6-1.4l-1.1-0.1l-0.1-1.5l-1.8-1.9l-1.9-1.1l-1.2-0.7l-1.5,0.1l-0.5-2.4l-2.2-1.5
						l-2.4-0.2l-1-1.4l2.5-0.9l-3.6,0l-3.7,0.2l0,0.8l-1.7,0.9l-2.3-0.4l-1.7-1.4l-3.2,0.3l-2.7,0l-0.1-1l-1.9-1.7l-2.1-0.1
						l-1.1-2.1l-1,1l0.4,1.4l-3.7,1.2l0.1,2.3l0.9,1.1l-0.7,2.2l-1.3,0.2l-1.1-2.4l1.3-1.7l0-1.6l-1-1.4l1.7-0.4l0.1-0.7l0.6-1
						l-0.8-0.8l-1.1-0.2l-1.4,1.5l-1.2,0.7l-2.3,1.5l-2.3-0.2l-0.2,0.6l-1.9,0.1l-1.7,1.4l-0.6,2.5l0,1l-1.2,0.3l-2.2,2.1l-1.5-0.1
						l-1.1-0.8l-1-0.9l-1.3-0.5l-1.7-0.1l0.1-0.3l-1.6-0.2l-1,0.9l-1.8,0.6l-1.3,0.8l-1.5,0.2l-0.8-0.7l-0.3,0.2l-1.2-0.1l0.1-0.6
						l-1.1-1.1l-1.4-1.3l-1.1-1.2l-0.8-1.6l-0.4-0.5l-0.1-0.8l0.6-0.8l-0.2-0.8l0.3-1.3l0.5-0.3l-0.1-1.4l-0.2-0.8l0.1-1.3l0.3-1.2
						l0.7-1l-0.3-1.1l0.1-0.7l0.3-0.3l-0.8-0.8l-1.1-0.5l-0.9-0.7l-0.9-0.6l-0.5-0.1l-1.4-0.4l-0.6,0.3l-0.8,0.1l-0.7-0.2l-0.9-0.2
						l-0.3,0.3l-1,0.3l-1.4,0.1l-1.4-0.3l-0.5,0.1l-0.3-0.2l-0.8,0l-0.7,0.5l-0.3-0.1l-0.9-0.4l-0.3,0.5l-1-0.6l0.6-1.1l0.5-0.1
						l0.6-0.8l0.3-1.6l-0.2-0.3l0.3-1.1l-0.3-0.5l0.5-1.4l0-0.8l-0.6,0l0-0.5l0.6-0.1l0.8,0.8l0.7-2.4l0.4-1.4l-0.5-0.5l0.7-1.9
						l1.6-1.9l0.1-1.5l-0.7-0.7l-1.8,0.3l-2.6-0.1l-3.1,0.7l-2,0.8l-0.5,0.9l-0.2,2.6l-0.7,1.8l-1.9,1.3l-1.9,0.5l-2.2,0.6l-2.3,0.3
						l-2.6,0.9l-1.2-1.3l-3.2-0.8l-1.2-1.5l-0.7-1.8l-2-2.3L237,699l-0.9-1.6l-0.5-1.7l0.3-1.6l0.2-4.3l0.5-2.3l1.1-2.8l0.1,0l0-0.1
						l0,0l0,0l-0.5-1l-0.1-1.6l0-2.3l0.7-1.5l1.6-1.6l3-1.5l2.7-2.5l2.5-0.8l1.8-0.2l2.2,0.8l2.6-0.4l2.2,1.8l2.1,0.1l1.1-0.6
						l1.1,0.5l0.6-0.4l-0.6-0.7l0.1-1.4l-0.5-0.9l1.2-0.5l2.3-0.2l2.6,0.4l3.4-0.4l1.9,0.9l1.4,1.6l0.5,0.2l3-1.6l1.2,0.5l2.3,2.8
						l0.8,1.9l-0.6,2.2l0.4,1.3l1.4,2.5l1.6,2.8l1.1,0.8l0.5,1.4l1.5,0.4l0.9-0.4l0.7-2l0.1-1.3l0.1-2.2l-1.4-3.9l0-1.5l-1.3-2.4
						l-1-2.9l-0.5-2.4l0.5-2.5l1.4-2.1l1.7-1.7l3.3-2.3l0.4-1.2l1.5-1.3l1.5-0.2l1.9-2.1l3.1-1.1l1.9-2.7l-0.4-3.7l-0.3-1.3
						l-0.8-0.3l-0.1-3.6l-2-1.2l2,0.6l-0.6-2.4l0.6-1.6l0.3,3.2l1.5,1.4l-0.9,2.5l0.3,0.1l1.7-3l1-1.5l0-1.4l-0.7-0.7l-0.6-2.1l1,1
						l0.7,0.2l0.2,1l2.2-3l0.6-2.8l-0.9-0.2l0.9-1.1l-0.1,0.5l1.9,0l4.2-1.2l-0.9-0.7l-4.4,0.7l2.5-1.1l1.7-0.2l1.3-0.2l2.2-0.7
						l1.4,0.1l2-0.6l0.2-1.1l-0.9-0.9l0.3,1.5l-1.2-0.1l-1-2.1l0-2.1l0.5-0.9l1.6-2.4l3.1-1.2l3-1.4l3.2-2l-0.5-1.4l-1.9-2.4l0-5.9
						l-1.3-1.3l0.1,0l1.3,1.3v5.9l1.9,2.4l3.3-0.5l4.8-0.1l-5.2,3.5l0.1,3.5l2.3,0.3l3.3-3l2.9-1.7l6.6-2.5l3.7-2.8l-1.9-1.6
						l-0.3-3.1l-3,4.8l-4.9,0.6l-3.9-2.1l-1-3.3l-0.9-4.7l2.8-3l-2.6-2.2l-4.4,0.5l-6.2,3.8l-4.8,5.8l-2.5,0.7l3.4-4l4.3-5.9l3.8-2
						l2.5-3.3l3.1-0.3l4.5,0l6.4,1l5-0.8l3.7-3.8l4.9-1.7l2.1-1.7l2.2-1.8l-0.2-5.5l-1.2-1.9l-2.3-0.7l-1.2-4.3l-1.9-1.6l-4.7-1.3
						l-2.7-3l-4-3l1.2-3.4l-3.3-6.7l-3.9-7.3l-2.3-5.3l-2,2.8l-2.8,6.4l-4.3,3.2l-2.1-3.4l-2.7-0.9l-1-7.4l0.1-5.1l-5.3-0.5
						l-0.9-2.4l-3.7-3.7L307,525l-2.5,1.7l-3-0.6l-5.1-1.8l-2.1,1.5l1,9.8l1.3,5.4l-3.5,6.1l3.6,4.3l2,4.7l0.2,3.6l-1.6,3.7
						l-3.4,3.7l-4.8,2.4l2.1,2.7l1.5,7.9l-1.6,5l-2.3,1.6l-4.4-4.5l-2.1-5.5l-0.9-5.1l0.5-4.5l-3.2-0.5l-4.9-0.3l-3.1-2.2l-3.7-1.5
						l-2.1-2.5l-3-2.1l-5.5-2.4l-4.2,1.1l-1.4-4.2l-1.3-5.3l-4.4-1l0.2-6.8l1.2-4.8l3.2-7l3.6-5.2l3.5-0.8l0.2-4.3l2.3-2.8l4.2-0.4
						l3.4-4.7l0.9-3.1l2.9-6.1l0.9-3.7l3.1,2.2l4.1-1.1l5.8-5.3l0.4-3.8l-2.1-4.2l2.2-4.3l-0.2-4.1l-4-4.2l-4.4-1.3l-4.2-0.7
						l-0.2,9.3l-2.2,7l-3.1,5.6l-2.9-5.3l0.9-6l-3.5-5.3l-4,6.5l0-8.5l-5.5-1.7l2.6-4.3l-4-10.2l-3-4.2l-3.9-1.5l-3.5,6.8l-0.2,9.9
						l3.5,3.5l3.2,5.2l-1.3,8.2l-2.4-0.2l-1.9,6.2l0-7.4l-4.6-2.7l-2.6,1.4l0.3,5l-4.3-0.2l-4.6,1.2l-5.2-3.6l-3.3,0.6l-3-4.4
						l-2.4-2l-2.4,0.8l-3.6,0.4l-1.9,2.8l3,3.4l-3.2,4l-3.2-4.7l-2.5,1.4l-8,0.9l-5.4-1.7l4.2-4l-4-4.1l-2.9,0.5l-4.1-1.4l-6.9-3.1
						l-4.5-3.6L162,470l-1.1,2.5l-3.6,1.4l-0.4-6.5l-4,5.8l-5-7.8l-2.1-0.9l-0.7,4.2l-2.2,2l-2-3.6l-4.9,2.2l-4.4,3.8l-4.4-1
						l-3.6,2.7l-2.6,3.5l-3.1-0.8l-4.7-4l-5.5-2.1l0,29.4l0,37.6l2.9,0.2l2.9,1.7l2.1,2.6l2.6,3.8l2.9-3.2l3-1.9l1.6,3l2,2.4
						l2.7,2.6l1.9,4l3,6.2l5.1,3.4l0.1,3.3l0,0l-0.1-3.3l-5.1-3.4l-3-6.2l-1.9-4l-2.7-2.6l-2-2.4l-1.6-3l-3,1.9l-2.9,3.2l-2.6-3.8
						l-2.1-2.6l-2.9-1.7l-2.9-0.2l0-37.6l0-29.4l-3.2-1.2l-4.5-2.6l-4,1.4l-2.3-1.1l-5.7-0.8l-6.3-2.8l-3,0.9l-4.5-1.5l0.2-2.1
						l-5-0.5l-1.3,1.8l-2.1-4.1l-4.5-1.9l-4.6,4.9l-2.7-0.6l-5.6,4l-2.9,1l-3,4.2l-0.7,4.2L38,478l-5.3,0.3l-1.7,4.3l4.1,2.5
						l2.8,3.4l2.1,3.9l3.7,2.9l2.4,4.6l-6.3,0.3l0.4-3.7h-2.4l-6.6,3.6l-4.2,3l3.8,4.2l1.2,2.8l4.4,1.7l4.2-0.8l2.3,1.5l0.9-1.5
						l3.2-1.5l1.8-0.1l-2.2,2.7l1.7,1.2l0.6,3.1l-2.3,2.1l-2.2-0.6l-2.4,3.2l-2-1.1l-2.4,0.5l-1.1,3.3l-2.4,3.6L33,531l2.3,2.6
						l0,3.5l2,1.4l2.5,2.8l3.9-1.1l1.9,2.1l-0.5,2.1l0.3,3.4h1.8l3-2.3l1.1,2.9l0.8-2.1l1.9,2.9l1.6-2.1l1,1l3.4-1.7l-1.5,3.4
						l-0.5,4.2l-2.2,1.9l-0.7,1.1l-4.1,3.2l-1.5,2.2l-3.7,0.6l-3.2,2.9l-2.9,1.6l-3.3,2.4l0.5,0.9l5.1-1.5l2.5-1.7l3-1.8l2.8-1.5
						l2,0.4l3.5-2.3l0.9-2.5l4.6-2.8l0.7-2.4l3-1.7l3.2-2.3l2.8-4.1l-2.2-2.8l4.3-4.2l2-4l3.8-3.4l0.8,1.6l-3.2,1.9l-1.3,5.9
						l0.4,3.4l3.3-1.2l2.6-2l3.4-1.2l1.6-0.4l-0.6-4.2l3.3-1.3l3.5,2.6l5.8,2.8l4.1-0.5l5.2,2.1l2.8,1.1l6.1,6l3.5,1.6l4.7,0.1
						l2.8,0.4l1.6,5.2l3.8,4.4l0.8,4.6l2.6,1.7l1.6,1.9l1.2-1.8l-1.2,1.7l0.1,2.6l3.6,3.7l0.5,4l3.8,2.1l-0.4,3l1.7,4.2l5.4,1.9
						l2.1,2l5.8,4.5l0.4,0h8.4h8.8h2.9h9.1h8.8h8.9h8.9h10.1h10.2h6l0,0.1h-6.1h-10.2h-10.1h-8.9h-8.9h-8.8h-9.1h-2.9h-8.8h-8.4
						l1,3.7l0.5,3.6l-0.7,1.2l-1.6-4.2l-4.3-1.5l-0.4,0.9l0.9,2.1l0.9,3.8l0.5,5.8L158,616l-0.4,3.8l-1.2,3.8l1,3.1l0.1,3.4
						l-0.6,3.2l1.6,2.1l0.4,3.1l2.3,3.2l1.3,1.2l-0.1,0.9l2.5,5.2l2.9,3.7l0.4,2l0.8,0.6l2.8,0.4l1.1,1l1.7,0.2l0.3,1l1.4,0.4l1.9,2
						l0.5,1.8l0,0l1.2,3.1l1.4,2.8l1.1,2.3l1.1,2.1l1.7,0.9l2.3,2.4l-0.1,1.5l-1.1,1.3l-1.2-0.2l-0.2,0.3l1.7,1.9l1.8,0.8l0.7,0.9
						l0.4-0.4l2,1.5l1.4,1l0.4,1.8l-0.1,2.4l1.5,0.8l2.1,1.6l1.9,1.8l0.8,2l0.5,0l1.2-1.2l0.1-0.6l-1.1-1.4l-1.2-1.5l-1.4-0.1
						l-0.2-1.7l-0.8-1.5l-0.9-1.4l-1-3.1l-1.9-1.7l-0.6-1.2l-0.9-0.8l-0.6-2.2l-0.5,0.1l-0.4-1.2l-0.5-0.2l-0.5-0.8l-2.2-2.3l-1-1.4
						l-0.3-2.6l-0.5-1.7l0.5-1.4l1.7,1l1-0.1l2.1,1.4l0,1.3l1,2.6l1.6,2.6l0.1,1.1l1.4,1.6l1.7,1.8l1.6,0.3l0.7,2.3l1.8,1.6l1.5,0.8
						l-0.5,2l0.5,0.8l2.6,1.3l1.4,2l3,2.5l2.6,3.2l1,1.6l0.3,1.3l1,1.4l0,1.1l-0.7,0.8l0.3,0.9l-1,0.3l0.7,1.5l1.5,2l3.2,1.8
						l1.2,1.4l3,1l1.7,0.2l0.8,0.8l2.5,1.5l3.4,1.4l2.2,0.4l2.8,1.4l2.2,0.6l2.1,0.8l1.5-0.3l2.4-1.2l1.7-0.2l2.4,0.8l1.5,1l3.4,3.3
						l1.6,1.3l1.4,0.6l1.9,0.1l1.5,0.5l0.8,0.7l1.7,0.2l1.2,0.6l1.1,0.3l1.7,0l0.3-0.7l0.9,0.3l0.5,0.9l-0.2,0.2l-0.5-0.5l-0.3,0.5
						l1.5,1.4l1.2,0.9l0.7,1l1.4,1.2l1,1l-0.7,0.6l0.8,0.4l-0.4,1l0,0.9l0.4,0.6l1,0.3l0.7,0.8l0.6-0.7l-0.2-0.9l0.8,0.5l0.2,0.9
						l1,0.4l1.2,0.6l0.8,0.7l0.1,0.7l-0.3,0.5l0.6,0.6l1.6,0.7l0.3,0.4l0.1-0.6h1.3l0.8,0.4l1.2,0.2l0.6,1.2l1,0.2l0.4-0.5l0.5,1.8
						l1.4-0.1l0.4-0.4l0.8-0.4l-1.4-1.6l0.3-0.6l0.6-0.1l1.2-0.7l0.6-1l1.3-0.2l1.5,0.8l0.6,1l0.8,0.2l-0.7,0.8l0.6,1.6l1,0.9
						l1.2,1.6l0.5,2.5l-0.6,0.8l0.7,2.7l-0.6,1.7l1.1,0.7l-1.1,1.6l-1.3,1.9l-1.5,0.2l-0.7,1.1l0.1,1.5l-1.1,0.2l0.4,0.9l-2,1.2
						l-1.6,0.6l0.2,1.2l-1.1,1.9l-0.6,1.8l-1,0.4l0.5,2.7l-0.6,0.8l1.8,1.3l1.1-1.4l0.6,1.3l-1.6,2.2l-2.4,1.9l-0.9,2.1l1.4,2.8
						l-1,1.3l2.1,1.2l2.3,2l0.9,2.2l1.2,1.4l2.8,6l2.9,5.6l2.5,4l-0.5,0.9l1.2,2.5l2.3,1.9l5.3,3.4l5.9,3.1l0.3,1.3l3,1.8l1.5-0.8
						l0.8-1.6l1.5,2.1l0.4,2.3l1.6,1.3l-0.9,3l1.6,3.5l-1.6-3.5l0.9-3l-1.6-1.3l-0.4-2.3l-1.5-2.1l-0.8,1.6l-1.5,0.8l0.6,4.4
						l0.2,5.2l-0.9,7.2l-1,6.8l-0.5,6.4l-1.7,4.1l0.4,4.2l-0.9,2.8l0.7,5.2l-1.3,5.3l-2.1,5.8l-1.8,6l-1.2,0.1l0.2,4.2l0.9,3.7
						l-1.4,2.6l-1,7.3l-0.9,5.8l1.9,0.6l0.9-5l2,1.1l-1.5,8.5l-3.3-1.5l-1,7l-2.8,3.8l4.5,1.3l-3.1,3.4l-1.3,4.3l0.4,7.8l1.5,3.1
						l-0.8,2.8l0.9,3l3.7,2.8l3.4,3.5l3.3,1.6l1.3-0.1l0.5-4.7l2.7-1.8l1.4-1.2l2.6,0l-2.7-0.7l0,0l2.8,0.8l1.2,0.2l-2-2.8l-1-4.9
						l1.2-2.2l2.7-1.8l1.9-5.3l3.5-2.5l1-4l-2.8-0.9l-2.9-3.2l0.8-3.2l2.3-2.2l2.8,0l0.7-2.2l0.4-4.2l2.4-2.5l2.7-1.3l-0.9-2.1
						l-1.6,1.3l-2-1.2l-0.4-3.9l1.1-1l2.9,1.4l3-0.5l1.8-1.4l-0.6-2l0.6-2.9l-0.6-2.3l3.3,0.4l6-0.8l4.4-2l2.8-4.8l0.1-1.8l-1.9-1.6
						l0.4-2.5l-3.8-3.1l0.2-1.9l1.8,2l2-0.1l2.7,1.6l1.6-0.4l2.2,0.7l3.4-2l1.3-2.3l2-2l1.3-3.4l2-1.6l2.6-2.8l3.3-6l2.1-1.9
						l0.7-1.6l0.6-3.4l-0.5-1.8l0.4-2.5l2.5-3.3l3.5-2.6l3.3-0.9l2.1-1.4l4.7-1.2l3.2,0l0.7-1.9l2.4-1.4l0.5-3.3l3-4.1l0.5-4.2
						l0.9-1.2l0.3-2.1l0.8-4.8l-0.2-5.7l0.8-2.2l0.7-0.1l2.2-2.6l1.9-3.4l4.2-4.2l1.5-2l1.2-5l-0.5-1.8L421.6,780.1z"/>
					<polygon id="Fill-129" class="st1" points="294.3,687.5 293.6,689.9 294.8,691 295.6,693.2 296.4,693 296.4,690.8 295.3,687.7 
											"/>
					<polygon id="Fill-130" class="st1" points="293.3,681.9 291.7,682 292,682.8 295.5,682.5 295.4,681.9 					"/>
					<polygon id="Fill-131" class="st1" points="297.7,684.7 298.3,682.4 295.5,680.9 295.5,681.3 297.1,682.6 297.1,684.3 					"/>
					<polygon id="Fill-132" class="st1" points="361.5,586.9 362.1,585.7 360.7,585.4 358.2,587.1 356.4,589.8 353.3,597.1 
						350.9,599.8 352.1,601 350.3,602.5 350.8,603.9 356.5,604 359.6,603.7 362.4,604.8 360.4,606.8 362.1,607 365.5,603.2 
						366.3,603.8 365.7,607.3 367.6,608.1 368.9,608 370.2,604.2 369.3,601.4 368.9,599 366.8,599.8 367.7,596.5 364.8,595.1 
						363.5,596.2 360.9,595 361.9,593.4 359.9,592.4 358,594 360,589.9 					"/>
					<polygon id="Fill-135" class="st1" points="341.7,595.9 338.9,594.1 335.2,593 334.3,593.4 336.8,595.4 340.5,596.8 
						341.8,596.7 					"/>
					<polygon id="Fill-137" class="st1" points="159.4,599 158.2,596.7 155.3,594.9 153.9,592.8 152.9,591.3 150.2,590.9 
						148.5,590.2 145.5,589.2 145.2,590.3 146.3,592.6 149.3,593.4 149.8,594.7 152.4,596.2 153.2,597.7 157.9,599.6 					"/>
					<polygon id="Fill-138" class="st1" points="338.2,608 337.2,606.2 336.1,607.3 336.8,608.5 340.4,610 341.4,609.8 342.8,608.3 
						340.2,608.4 					"/>
					<polygon id="Fill-160" class="st1" points="854.7,705.2 856,703.9 855.3,702.7 853.7,702.7 850.7,703.5 849.3,704.9 
						849.4,707.4 851.7,708.3 854.1,706.9 					"/>
					<polygon id="Fill-161" class="st1" points="304.5,704.4 306.5,704 306.8,703.2 304.6,702 302.4,701.8 302.6,701 300.8,700.3 
						299.9,700.4 298,699 295.5,697 294.4,696.3 291.7,696.6 290.5,695.5 287.7,694.4 285.3,694.4 282.8,694.2 282,694.5 
						279.8,694.8 278.3,695.4 276.9,696.1 276.3,697.3 274.7,698.2 276,698.5 277.4,698.2 277.9,697.4 279.1,697.4 281.2,695.7 
						284.2,695.9 283.1,696.7 284.1,697.3 288,697.8 288.9,698.4 291.6,699.3 293.3,699.2 294,700.9 295.1,701.8 297,702 
						298.2,702.8 296.2,704.6 300.5,704.3 302.5,704.5 					"/>
					<polygon id="Fill-162" class="st1" points="625.6,652.6 623.5,652.6 623.1,653.4 622.9,653.5 621.6,653.6 622.2,655 
						623.6,655.4 626.6,654 626.5,653.7 626.3,653.1 628.2,651.6 					"/>
					<polygon id="Fill-163" class="st1" points="563,569.4 564.9,565.3 563.9,562.8 559.2,564.5 559.6,566.6 					"/>
					<polygon id="Fill-164" class="st1" points="528.8,631.8 529,630.5 532.8,629.7 535.6,627 535.4,624.7 532,625.2 528.7,623.4 
						527.6,624.2 522.2,622.4 521.1,620.8 516.3,620.7 513.9,620.9 510.8,620.2 506.8,620.2 503.2,619.5 499.1,622.4 500.3,624.2 
						500.1,627 500.3,628.4 500.9,629.8 500.9,631.5 500.3,633.8 500.1,635.4 498.9,636.8 498.7,639.3 499.4,640.7 500.7,641.1 
						501,643.4 500.5,646.3 502.1,645.9 503.6,646.4 504.8,645.5 507.5,646 508.4,648.2 509.4,649.4 510.9,649.7 512,648.3 
						513.8,647 516.6,647.1 520.3,647 522.4,644.2 524.6,643.4 525.3,641 527,639.3 525.8,637.1 527,634 					"/>
					<polygon id="Fill-165" class="st1" points="350.8,942.8 348.3,941.6 344.6,944.4 346.2,946.6 348.7,944.4 350.1,946.1 
						354.1,944.7 355,943 352.6,940.9 					"/>
					<polygon id="Fill-166" class="st1" points="1060.2,813.4 1059,813.5 1057.3,814.1 1057.7,815.2 1060,814.6 1062.2,813.9 
						1062.5,813.7 1062.9,812.3 1062.2,812.5 					"/>
					<polygon id="Fill-167" class="st1" points="1055.7,816.6 1054.5,816.2 1053.5,817.3 1053.8,818.6 1055.2,818.9 1056.8,818.5 
						1057.3,817 1056.4,816.1 					"/>
					<polygon id="Fill-168" class="st1" points="553.5,628.9 554.5,625.8 554,622.3 552.2,623.9 551.6,625.4 552.3,628.1 					"/>
					<polygon id="Fill-169" class="st1" points="509.9,565.4 511.5,563 512.5,564.4 511.4,566.7 512.1,568 515.8,568.9 515.8,569 
						517.8,572.1 517.4,574.9 512.9,574.5 512.3,577.7 514,580.3 510.8,581.7 511.7,583.6 516.4,584.4 516.4,584.4 513.7,585.4 
						509.3,590.2 510.9,591.1 513,589.4 515.8,589.9 517.8,587.8 519.2,588.7 524.3,587.4 528.4,587.4 531.1,585 529.9,582.6 
						531.4,581.2 531.8,578.2 528.1,577.2 527.3,575.3 525.4,569.7 523.3,568.9 520.6,562.9 520.4,562.3 517.3,562 520,557.3 
						520.8,552.9 517.5,552.9 514.4,553.6 517.6,547.6 514,548.1 511.6,547.6 509.3,552.1 508.2,557.7 509.7,560.4 					"/>
					<polygon id="Fill-170" class="st1" points="422.2,271.6 411.7,274.2 408,283.7 397.5,282.5 387.5,297 387.1,306.7 394.2,318.1 
						388,311.3 383.9,309.6 376.8,301.3 368.9,313.4 365.7,306.7 356.5,306.9 347.4,310.3 340.4,315.9 341.6,325 337.3,327.1 
						327,340.2 324.4,347.2 332.4,353.4 331.3,359.4 320.4,367 309.1,374.3 308.7,380 315.4,385.7 328.1,389.3 322.2,390 
						314.4,394.3 319.5,402.4 323,406.4 330.2,405.5 338.2,405 344.5,405.9 352.4,413 352.4,417.9 356.2,422.3 359.8,433.9 
						362.1,441.1 363.9,444.9 360.6,453.9 363.1,456.2 366,454.9 368.7,458.1 373.8,463.9 367.7,461.5 365,461.6 363.8,466.4 
						364,472.3 367.7,475 370.3,473.8 372,472.6 375.4,469.5 374.7,476.2 373.6,479.7 369.1,482.7 366.1,491.9 368.1,494.6 
						367.1,500.1 371.2,506.7 371.6,513 373.1,517.4 378.2,525.6 380.2,531.7 383.1,535.1 389,535.1 393.4,540.1 397.6,539.7 
						399.1,533.8 400.5,528.6 399.3,523.6 404.1,518.4 405.6,513.9 405.7,509.1 408.2,504.7 412.5,503 416.4,501.3 418.5,500.9 
						424.9,495.7 429,487.6 432.1,484.6 435.4,484.5 444,481.8 452.1,475.3 460.1,467.8 456,467.3 448.2,466.9 451.6,462.2 
						450.6,456 454.3,461.3 456.5,464.8 461.8,463 460.7,455.6 456.8,449.8 452.8,447.4 454.3,444.7 460.2,448.8 460.2,444.4 
						456.5,437.5 460.6,437.5 464.8,435.9 465.8,432.2 462.3,427.8 468.9,427 465.1,417.2 468.2,416.2 467.5,405.9 462.1,399.2 
						467,395.1 471.6,394.6 468,385.7 467.9,369.5 470.3,359.3 473.8,347 466.9,346.2 476.4,343.2 478.1,339 490.2,325.6 
						488.5,316.9 479.6,312.9 465.2,320.9 457.6,328.3 460.9,316.6 458.4,309 452.7,315.5 443.7,308.2 433.2,310.5 431.7,306.7 
						447.7,304.5 459.1,303.5 464.5,294.7 446,274.9 					"/>
					<polygon id="Fill-171" class="st1" points="601.1,650.7 599,650.9 597.5,649.7 597,651.3 600.3,652 600.3,652.6 604.2,652.3 
						604.6,651.2 603.1,651.6 603.1,651 					"/>
					<polygon id="Fill-172" class="st1" points="308,709.4 309.9,709.6 311.4,709.4 313.4,709.9 313.6,710.7 314.4,711.2 
						315.6,709.2 316.6,708.8 317.1,709.5 318.3,709.3 318.8,708.8 319.8,709 321.2,708.8 322.7,709.5 323.9,708.3 322.3,707.2 
						321,707.1 321.1,706.3 319.4,706.3 318.8,705.3 318,705.4 316.2,704.7 313.8,704.6 313.4,705.1 310.7,704.7 308.9,704.6 
						308.2,705.4 310.1,705.8 310.1,706.9 311.5,708.1 310.4,708.8 308.1,708.5 305.2,708.1 305,709.1 306.6,710 					"/>
					<path id="Fill-173" class="st1" d="M855.9,761.2l1.9,0.2L855.9,761.2z M863.7,760.4l-2.5-0.7L863.7,760.4z M849.3,762.9
						l0.4,2.6l1.4,2.6l1.5,0.8l0.5,4l2.4,0.3l1.9-0.2l1.1,1.5l3.5-1.1l1.5,1l2.1,0.2l1.2,1.8l3.4-1.4l0.4,1.1l1.1-4.6l0.1-3l2.8-2.1
						l-0.1-2.7l1-2l3.5-0.4l-3.3-2.8l0.5-1.4l-2.2-2.8l1.7-2.7l-1.5-0.3l1.5,0.3l2.2-1l-0.5-1.5l2-0.2l0.2-1.2l-2.5-0.9l-1.9-0.8
						l-0.1-1.3l-1.5-1.5l-1.2,0l-1.5,2.4l-2.3,2.1l-0.1,1.5l-0.2,1.9l-1.4-0.1l-0.6,1l0,0l0.6-1l1.4,0.1l0.2-1.9l0.1-1.5l-2.5,1.6
						l-1.2,1.1l0,0l-1.5,1.9l-2.1,2.4l-3.5,0.6l-1.3,0.6l-0.6,2.5l-2.3,0.6l-2.2-1l0.5,2l2,1.7v0l-2-1.7l-0.5-2l-1.8,2L849.3,762.9z
						"/>
					<polygon id="Fill-174" class="st1" points="880.4,767.9 879.9,770.2 878.6,772 879.6,774 880.9,774 881.4,776.7 880.5,779.4 
						881.8,780.2 883.7,779.8 883.6,775.7 883.4,772.4 885.4,771.5 885.2,774.3 887.4,776 887,777.1 887.8,777.8 890.8,776.7 
						889.3,779.1 890.5,780.1 892.1,779.2 892.1,777.4 889.4,774.1 889.9,773.1 887,769.5 889.7,768.4 891.1,766.7 892.4,767.1 
						892.7,765.8 886.9,766.8 885.3,768.1 882.6,765.5 883,763.4 885.7,763 890.8,762.8 893.7,763.4 896,762.8 898.5,760 898,759.4 
						894.9,761.5 891.4,761.6 887.5,761.2 885.1,760.3 882.5,762.4 881.9,763.6 					"/>
					<polygon id="Fill-175" class="st1" points="877.2,788.5 876.2,787.8 875.4,788.8 873.9,788.8 873,790.6 874.5,790.6 
						876.4,790.2 879.6,789.6 878.9,788.3 					"/>
					<polygon id="Fill-176" class="st1" points="885.1,795.3 885.3,794.4 884.2,793.4 882.5,792.5 879.6,793.1 883.8,795.3 					"/>
					<polygon id="Fill-177" class="st1" points="901.3,773.6 901.9,774.3 904,774.5 905.1,774 904.4,773.6 					"/>
					<polygon id="Fill-178" class="st1" points="891.4,789.6 891.9,787.8 889.1,789 886.9,789.2 884.9,788.2 882.4,788.9 
						882.4,790.2 886.7,790.6 					"/>
					<polygon id="Fill-179" class="st1" points="906.8,772.7 906.1,774.2 908.3,774.3 910.1,774.1 912.8,774.4 915.5,775.5 
						914.3,773.4 910.8,772.6 					"/>
					<polygon id="Fill-180" class="st1" points="906.9,759.2 906.7,757.5 905.7,758.6 905.1,761.1 906,765 907.2,767 908,766.6 
						906.8,765 907.2,763.1 908.7,763.4 908.9,760.7 908.6,759.4 					"/>
					<polygon id="Fill-181" class="st1" points="898.1,790.6 894.6,791.6 893.1,793.2 892.8,794.1 893.2,794.4 896.2,793.8 
						898.5,791.9 898.4,791.1 					"/>
					<polygon id="Fill-182" class="st1" points="935.3,790.3 939.2,790.2 939.9,789.4 943,790 945.8,792.5 945.7,782.6 945.6,772.7 
						942.4,772.1 940.1,771.1 937.5,770 934.8,770 931.3,771.8 928.7,775 925.6,773.2 924.7,768.3 924.2,767.2 919.3,766 917.7,767 
						913.6,767.7 914.9,769.2 917.6,769.8 918.8,771.6 923.3,771.6 923.6,772.4 921.4,772.3 918.1,773.4 920.4,774.9 920.4,776.2 
						921.1,777.3 922.3,777 923.2,775.6 927.8,778.3 930.3,778.6 936.3,781.2 937.7,783.7 938.5,787 936.6,787.8 					"/>
					<polygon id="Fill-183" class="st1" points="925,782 925.1,784 925.9,782.2 925.9,781 925.6,780.2 925.2,781.1 					"/>
					<polygon id="Fill-184" class="st1" points="865.9,789.6 869.2,788.6 865.6,787.1 861.2,786.6 860.2,784.9 854.7,783.6 
						854.1,784.7 848.5,784.4 848.1,783.5 846.9,783.3 844.5,782.2 841,782.1 839,784.6 841.6,784.8 842.1,785.9 847.5,787 
						848.7,786.7 850.8,787 854.2,788 857,788.5 860,788.7 862.6,788.6 					"/>
					<polygon id="Fill-185" class="st1" points="841,776.6 841.8,772.9 840.3,771.1 838.2,770.8 837.1,769.2 836.6,767.2 
						835.6,767.1 833.8,766.1 835,763.7 832.8,762.4 831.1,759.9 828.6,757.9 825.5,757.9 822.7,754.8 821.1,753.6 818.8,751.6 
						816.2,748.7 811.6,748.2 809.7,748 809.9,749.5 813,752.8 815.2,754.4 816.8,756.9 819.5,758.7 820.6,761 821.4,763.5 
						824,765.9 826.3,770 827.8,772.2 830,774.5 831.3,776.3 835.1,778.7 837.6,781.1 840.9,781.1 					"/>
					<polygon id="Fill-186" class="st1" points="501.2,583.6 506.6,580.8 508.9,576.5 508.4,573 510,569.6 506.8,566.5 504.2,566.7 
						504.8,569.4 504.2,572.1 504.2,572.1 504.8,569.4 504.2,566.7 501.9,569.1 497.7,573 499.3,577.9 496.8,582.9 					"/>
					<polygon id="Fill-188" class="st1" points="550.5,633.3 550.7,638.3 552,639.3 553.4,638 554.9,638.2 555.4,632.8 553.3,629.9 
						551.6,631.2 549.7,631 					"/>
					<polygon id="Fill-189" class="st1" points="570.1,641.6 567,642 563.4,641.6 563,643.8 567.2,645.9 568.8,646.3 571.1,647.8 
						571.8,645.7 571.3,644.5 572.4,641.2 					"/>
					<polygon id="Fill-190" class="st1" points="298.1,708.8 296,708.5 295.3,708.3 294,708.6 293.6,709.4 295.4,710.6 297.1,711.2 
						298.1,710.6 300.2,710.5 299.7,709.6 					"/>
					<polygon id="Fill-191" class="st1" points="921.8,659.1 923.2,658.3 924.4,659.4 925.9,657.3 925.6,656.1 923.5,655.4 
						922.4,656.9 920.8,656.5 919.3,658.5 919.3,660.1 921.1,661.1 					"/>
					<polygon id="Fill-192" class="st1" points="938.6,642.8 934.3,646.6 932.4,644.8 929.3,651.5 926.1,650.7 920.2,651.8 
						918.1,654.3 915.1,656.2 913.6,658.5 910.8,659.6 912,662.1 913.8,663.1 913.1,666.3 914.5,667.7 916.5,666.2 918.4,660.2 
						915.4,657.5 918.9,657.4 922.4,655.7 927.5,654.9 927.6,657.6 929.6,659 933.8,654.9 939,654.6 942.8,652.9 944.3,650.3 
						943.8,648.4 944.9,645.4 944.8,641.5 947.6,637.6 947.6,634.5 946,628.9 942.9,629.7 941.7,632.2 942.2,636.6 940.3,641.3 
											"/>
					<polygon id="Fill-193" class="st1" points="943.4,621 942,624.1 942.4,628 945.7,627.9 947.3,623.6 952,626.3 954.6,622.4 
						959,621.3 958.3,616.7 956.2,618.5 954.1,617.6 951.8,616.2 948.4,611.9 947.5,615.1 946.6,620.8 					"/>
					<polygon id="Fill-194" class="st1" points="767,736.6 764.8,734.8 763.3,740 763.9,744.6 765.4,747.1 768.2,746.4 769.5,745.5 
						770,742.2 768.4,738.8 					"/>
					<polygon id="Fill-195" class="st1" points="674.2,804.6 673.5,802.6 672.8,801.3 671.8,800 670.8,801.4 670.8,803.2 
						669.2,805.3 667.9,805 668.3,806.3 667.5,807.8 665.1,809.7 663.5,811.4 662.2,811.5 661.1,812 659.5,812.7 658.1,812.8 
						657.7,814.8 656.7,816.5 656.9,819.4 657.5,821.3 658.1,822.8 657.9,824.8 656.5,827.2 656.5,828.3 655.2,828.8 654.7,831.1 
						654.9,833.4 655.9,836 656.1,838.9 656.9,840.6 659.2,841.7 660.9,842.6 663.4,841.2 665.7,840.4 667,836.6 668.1,832.2 
						669.9,826.2 671.3,821.8 672.4,818.2 672.6,815.5 673.4,814.8 673.7,813.5 673.1,811.2 673.7,810.3 674.7,812.1 675.2,811.2 
						675.4,809.8 674.7,808.3 					"/>
					<polygon id="Fill-196" class="st1" points="1023.3,831.5 1021.7,830.2 1019.2,828.4 1018.2,827.6 1016.8,826.6 1015.1,825.6 
						1013.8,825.6 1014.2,826.5 1016.2,828.6 1018.2,830.1 1020.4,831.4 1022.1,832.2 					"/>
					<polygon id="Fill-197" class="st1" points="1041.1,898.8 1040.4,897.2 1039.8,895.5 1037.8,897.3 1037.3,899.6 1036.2,900.6 
						1034.9,903.6 1033.1,905.7 1030.6,907.9 1028.5,909.5 1026.6,910.3 1022.9,914.4 1021.4,917.6 1021.9,919.2 1025,919.5 
						1026.9,921 1029.6,921 1031.1,919.8 1033.4,917.9 1035.1,913.5 1035.9,910.8 1038.4,909.2 1040.6,909.1 1039.5,907.1 
						1041,905.5 1043,902.5 1044,900.6 1044,898.9 1043.2,897.2 					"/>
					<polygon id="Fill-198" class="st1" points="1052.3,886.2 1050.3,885.9 1048,884.7 1047.6,881.7 1046.2,880.7 1046.2,883.3 
						1044.1,879.3 1043.3,875.9 1041,874.9 1039.4,872.8 1038.4,873.1 1039.6,875.8 1041.9,879.1 1043.2,880.7 1043.2,881.4 
						1044.3,884 1044.5,886.5 1044,889.5 1041.9,890.9 1041.8,892.3 1044.9,893.9 1045.9,896.2 1044.2,899.5 1045.4,900.1 
						1045.9,901.2 1048.1,899.5 1049.6,896.8 1050.7,894.6 1051.1,893.8 1050.8,892.1 1051.6,890.9 1053.8,891 1054.7,888.7 
						1055.4,885.2 1053.9,884.7 					"/>
					<polygon id="Fill-199" class="st1" points="694.3,683.2 694.1,682.8 693.4,684.2 693.8,685.7 694.1,684.9 					"/>
					<polygon id="Fill-200" class="st1" points="964.7,782.8 959.7,781 959.2,779.3 957.6,777.8 955.5,776.3 950,774.6 944.8,772.6 
						944.9,782.1 944.9,791.7 948,791.9 949.7,792.3 952,791.3 951.6,789.2 953.5,788.2 956,787.3 959.9,788.6 961.5,791.2 
						963.1,792.8 965.5,794.7 968.5,795.2 971.1,795.5 971.8,796.3 973.8,796 974.1,795.2 970.9,793.9 971.8,793.4 969.5,792.9 
						969.6,791.6 967.9,791.7 966,788.5 963.3,786.6 962.6,784.7 965.4,784.4 					"/>
					<polygon id="Fill-201" class="st1" points="978,773.5 979.4,774.5 980.1,775.6 980.7,777.4 981.7,776.6 981.3,775 980.1,774.1 
						978.9,772.9 977.6,772.2 976.6,771.6 975,770.7 974.1,771.4 976.3,772.3 					"/>
					<polygon id="Fill-202" class="st1" points="986.8,780.8 986.1,780.1 985.8,779.2 985.4,779.5 986,781.8 987.1,783.8 
						988.2,784.9 988.9,784.6 989.2,783.8 988,782.7 					"/>
					<polygon id="Fill-203" class="st1" points="972.1,779 971.7,779.1 971.2,780.5 969.5,780.8 966.8,780.3 966.5,781.3 
						968.3,782.1 970.8,783 972.4,783 974,782.3 975.7,781.6 976.1,780.7 977.8,780.4 978.8,778.6 978.8,776.9 978.2,776.4 
						976.4,776.5 976.7,778.3 975,779.4 974.1,780.4 972.4,780.6 					"/>
					<polygon id="Fill-204" class="st1" points="885,726.7 886.3,728.2 887.2,725.6 886.1,724.5 883.4,724.4 					"/>
					<polygon id="Fill-205" class="st1" points="882.5,718.2 883,719.6 884.5,721.4 884.9,720.3 885.8,721 884.9,721.8 884.7,723.1 
						886.3,723.8 889.1,723.3 891,725.2 891.8,724.1 892.9,725.7 895.3,727.2 895.7,725.8 894.7,725.1 894.9,723.3 891.1,721.6 
						889.7,722 888.1,721.6 887.4,719.1 887.9,716.6 889.7,715.5 890.5,712.9 889.5,710.6 890,709.3 889.7,708.4 888.8,709.3 
						886.9,708.3 885,708.4 884,711.3 883.7,716.3 882.4,715.2 					"/>
					<polygon id="Fill-206" class="st1" points="880.3,733.2 878.5,735.4 876.3,737.3 874.9,739.5 878.9,736.6 880.4,734.4 
						882.4,732.7 881.9,730.1 					"/>
					<polygon id="Fill-207" class="st1" points="898.7,728.5 898.1,727.3 895.7,727.2 897.2,729.6 897.2,730.8 895.7,730.6 
						896.1,732.5 896.9,732.6 897,734.8 898.2,734.1 897.6,732.2 897.5,731.2 899.4,732 					"/>
					<polygon id="Fill-208" class="st1" points="891.9,732.1 891.5,733.9 890.7,734.8 890,735.6 892,737.6 893.1,736.8 894.1,734.9 
						895.3,733.9 895.7,731 893.2,733.9 893.7,731.9 					"/>
					<polygon id="Fill-209" class="st1" points="893.5,738 892,739.1 890.2,739.9 889,742.4 889.5,743.2 891.6,741.6 893,741.7 
						893.9,740.5 895.7,741.9 894.8,743.3 895.6,745.4 899,747.1 899.8,745.7 898.9,743.6 900.3,742.1 901.3,745.1 902.3,742.4 
						902.1,740.7 901.8,738.8 901.6,737.7 901.4,736.2 899.1,734.8 899.2,737.1 897.2,737.2 896.7,738.5 894.6,739.3 					"/>
					<polygon id="Fill-210" class="st1" points="888.1,728.2 888.6,729.4 888.4,730.8 888.5,732 890.4,731.2 891.8,730.1 891.9,729 
						889.9,729 					"/>
					<polygon id="Fill-211" class="st1" points="327.2,708.3 326.7,708.6 326.9,709.3 328.9,709.2 331.5,709.2 332.4,708.8 
						331.7,708.5 330,708.4 					"/>
					<path id="Fill-212" class="st3" d="M829.5,389.7l-2.8,5.7l-0.8,5.6l-5.5-0.2l-6.7,6.6l-2.4-2.8l-7.8,1.1l-1,3.3l-7.8,1.6
						l-5.8,5.8l-3.4,0.3l-3.4,7.5l2.4,5.7l-6.4,1.4l-7.1-0.5l-5.2,2.1L766,444l2.6,8.1l-5.5-5.5l-6.2,0.5l-5,3.8l1.4,6.8l-3.2-1.7
						l1.2-9.2l-1.6-5.5l-1.5,0.2l0.7,7l-5.3,6.4l3.9,7.5l-2.4,8.8l0.7,4.7l3.3,0.7l-1.4,5.4l1.7,4.5l-2.6,3.7l-0.8,3.8l-3.3,1.9
						l-1.2,2.7l-3.4-1.1l5.8-10.8l1.3-5.3l-3.3-5l0.7-11.8l-1-6.3l-1.8-3l2.8-7.7l-0.6-5.5l-7.9-2.7l-2.2,2l-1.9,8.9l-5.5,8.5
						l0.1,2.9l1.6,6.9l-1,4.1l3.6,0.8l0.1,1.8l3,4.4l-2,4.2l-10.8-9.3l-4.1-2.6l-8.8-2.6l-1.5,2.8l3.1,4.9l-3.4,5.4l-3.4-4.9
						l-4.4,3.4l-5.6,0.2l-2.1,2.7l-3.7-0.8l2.9-4.9l-2.2-0.4l-10.4,6.9l-6.2,3.7l-0.7,4.9l-4.6,1.6l-2.3-2.6l0-4.3l3.8-1l-1.7-4.4
						l-8.3-2.6l2.2,5l-1.5,4.7l2.5,4.5l-1.7,5.1l-2.8-2.6l-2.7-0.4l-6.9,7.2l2,5.2l-2.5,1.7l-7.2-4.4l-1.9,2.7l1.8,3l-0.4,3.3
						l-2.3-1.8l-3.8-2.1l-0.2-7.2l-0.2-3.3l-4.8-5.4l2.2-1l13.3,5.6l4.9-2l3.3-3.9l-0.2-5.1l-2.3-3.7l-11.2-9.2l-8.1-2l-4.9-5.2
						l-3.1,3l0,0l-3.2-5.4l3.8-2.4l-9.3-6.6l-5.3,1.8l-5.4-0.4l-4.5,7.4l-4.9-0.5l-6.5,3.8l-8.2,10.5l-5,6l-7.1,14.6l-5.4,9.9
						l-5.9,7l-7.8,5.5l-2.7,4.1l0.9,14.1l1.1,6.2l4.1,2.9l4-1.3l5.9-6.7l2,3.5l0,0l2.3,8l2.5,6.2l0.9,5l3.4-0.2l1.7-4.2l3.6,0.5
						l1.7-5.1l1.1-9.4l3.1-1.3l2.7-6.6l-2.8-3.3l-2.1-4.3l2.2-8.9l5.7-5.7l4.7-5.4l-0.5-4.3l2.9-5l5.1-2.1l4.1,3.4l0.3,3l-2,1.5
						l-6.8,7.5l-2.7,4.2l-1.4,3.8l1.4,5.7l-0.7,6.1l2.9,2l1.7,3.3l4.8-1.3l5.2-2.2l5.4-0.5l0,0l3.1,2.8l-3.4,3.3l0.4,1l0,0l-0.4-1
						l-3.1,0.2l-3.2-1l-3.7,0.9l-3.8,1.6l0.3,3.3l1.9,2l1.1-0.7l-0.3,3.3l-0.6,4.2l-2.4,0.1l-2.4-4.1l-2.8,1.9l-1.5,3.4l-0.1,4
						l0.6,4.4l3.1,0.9l-3.1-0.9l-4.1,1.7l-0.7,2.3l-2.9-0.1l-0.2-1.3l-3-0.9l-3.8,1.7l-4.6,2.4l-2,1.5l-1.4-1.6l-3.4-2l-1.7,1.4
						l-3,1l0-1.8l-3-1.2l-0.1-2h0l-0.8-2.5l2.1-3.8l0.9,0.6l0.7-2l-1.6-0.8l-0.4-1.5l0.9-1.8l0.1-2.8l-2.4,1.6l-1,1.5l-2.6,0.3
						l-0.8,1.6l-0.5,1.5l0.1,5.4l1.2,2.9l0.1,2.9l0.7,1.9l-2,2.5l-0.6-1.1l-2.5,0.3l-0.6,1.1l-2.5-0.1l-4.1,2.1l-2.6,7.2l-1.5,1.3
						L534,586l0,0l-2.6,1l-0.9,3.8l-6.9,3.6l-2.8-2l0.9,5.1l-5-1.2l-3.9,1l0.3,3.3l4.5,1.7l2.2,2.2l3.1,4.5l-0.6,8.4l-1.5,2.5
						l1.2,1.6l5.5,1.8l1.1-0.9l3.3,1.8l3.4-0.5l0.3-2.4l4.3-1.3l5.9,1.1l2.7-2.3l0.3-1.8l0,0l-0.3,1.8l1.2-0.3l1.7-1.9l1.4-0.6
						l2.4,1.4l1.5,0.5l0.9,4l2,2.3l2.7,2.6l2.3,1.8l2.2,0.3l1.3,1.6l1.9,0.7l0.9,1.7l1.2,0.5l0.9,1.9l1.2,2.2l-0.6,0.8l-0.6,2l0,1.1
						l1.2-0.3l1.6-3.2l1.2-0.2l0.3-2l-2.1-1.4l1.3-2.5l2.6,0.6l1.7,1.8l0.6-1.4l-0.3-0.7l-2.5-2l-2.2-1.2l-2.7-1.4l0.8-0.8l-0.7-0.9
						l-2.3,0l-3.3-3.2l-1.5-3.4l-2.8-2.1l-1-2.1l0.4-1.2l-0.2-2.1l2.4-1.5l2.4,0.6l-0.7,0.4l-0.1,0.1l-0.1,1.5l0.9,1.4l0.9-1.8
						l1.9,0.7l0.1,1.4l1.4,1.7l-0.6,0.3l2.5,3l2.7,1.2l1.7,1.5l2.8,1.5l1.3,0.8l0.8,1.3l0.6,0.3l0.5,0.6l-0.4,1.2l-0.3,2.7l0.3,1.9
						l1.7,1.3l0.1,0.8l0.5,0.3l1.4-1.9l0,0l-1.4,1.9l0.2,1.1l1.5,1.2l-0.2,0.7l0.2,0.3l1.2,1.7l1.3-0.1l1.3-0.3l0.6,0.2l1,0.1
						l-0.4,0.7l-0.6-0.2l-0.7-0.5l-0.6,0.2l-0.3,0.4l-0.6-0.1l-0.4,0.5l-0.6,0.6l0.5,1l0.4,0.1l0.4,0.4l0.4,0.8l-0.6,0.6l0.4,1.1
						l0.7,0.6l0.3-0.3l-0.1-0.9h0.7l0.6,1.1l-0.1,0.8l0.5,0.3l0.3-1.4l0.6,0l0.5,1.3h0.6l-1.3-4.2l1.1,0.7l1-0.2l-0.9-1.9l1.3-0.2
						l1.4,1.2l0-2.1l-1.5-1.1l-1.7-1.8l1.1-0.8l-1.5-1.8l-0.7-2.3l0.6-0.8l1.6,2h1.7l1.5-0.6l-2.1-2.2l3.6-1l1.5,0.4l1.8,0.1
						l0.7-0.4l0.9-2.5l0,0l-0.9,2.5l-0.7,0.4l0,0.8l0.9,1.8l2.5-2.1l1.3-1.2l3.5-0.2l0.5-1l-2.6-1.3l-0.3-1.5l0,0l-1-2.3l1.1-2.9
						l1.5-1.7l0.8-5l0.9,0.4l1.4-0.9l-0.1-1.1l2.3-3.1l1.1-2.4l2.8-0.5l0.2,1.6l4.6,1.1l0.5,0.2l0.5-0.4l0.4,0.9l-3.3,1.7l-0.5,0.8
						l3.2,1.2l-0.6,2l1.6,0.8l4-2.4l3.3-0.7l0.6-1.5l-3,0.3l-1.5-1L629,609l1.4-1.1l2.6-1.6l2.8-0.2l2-1.4l2.4-0.4v0l2.7-0.7l0.1,1
						l-4.4,1.8l1.7,1.7l-2.5,3.6l-2.2,0.7l2.6,2.5l3.4,1.6l3.8,3.5l0.4-0.5l0,0l-0.4,0.5l1.1,1.2l1.6,0.5l1.7,1.5l0.7,2.7l-0.4,1.7
						l-3.5,2.1l-2.6-0.4l-3.5,0.6l-4.3-1.5l-5.2-2.8l-4.9,0.1l-3.5,1.1l-3.6,2.6l-5.7-0.5l-1.3,3l-4.6,0.2l-3.3,3.7l1.9,1.8
						l-1.4,2.9l2.2,2.1l1.8,3.7l3.2-0.1l2.9,2l2.1-0.4l0.7-1.5l3.2,0.1l2.4,2l4.5-0.4l2-2.1l2.5,0.8l1.8-0.3l-1.1,1.4l1.1,1.7
						l-0.7,1.5l0.3,2.8l-0.1,0.1l-1.5,2.5l-1.1,2.9l-0.1,0l-0.4,0.9l-0.6,2.7l-0.8,1.6l0.2,0.2l-0.9,1.1l-1.5,0.9l-2.3-0.2l-2.4-0.8
						l-0.7,1.1l-0.8-1.7l-2.1-0.4l-2.6,0.3l-1.2,1l-2.3,1.1l-1.4-0.5l-2.9-1l-2.9-0.9l-4,0.1l-0.7-1.1l-3-0.4l-0.9-0.6l-1.1,0
						l-1-1.6l-4-0.7l-2,0.5l-2.1,1.6l-0.9,1.7l0.7,2.7l-1.4,1.6l-1.5,0.9l-3.2-1.7l-4.2-1.4l-2.7-0.7l-1.4-3.1l-3.9-1.6l-2.5-0.6
						l-1.2,0.3l-3.5-1.2l-1.1-0.6l-0.8-1.7l-1.5-0.1l-0.6-1.9l2-1.8l0.4-3.1l-1-0.9l0-1.7l1.5-1.8l-0.2-0.7l-2.5,1.4l0.1-1.9
						l-2.1-0.4l-3.2,1.5l-2,0.2l-1.2-0.9l-3.2,0l-2.8,1.5l-1.5-0.6l-4.9,0.3l-5,0.7l-2.9,1.1l-1.9,1.5l-3.2,0.6l-2.9,2l-1.3,0
						l-3.1-0.8l-2.8,0.3l-1.8-1.5l-2.2,0l-0.9,2.2l-2,3.7l-2.2,1.5l-3,1.6l-1.9,2.4l-0.4,1.8l-1.1,3l0.7,4.3l-2.5,2.8l-1.5,0.9
						l-2.3,2.3l-2.8,0.4l-1.4,1.2l-0.1,0.1l-0.1,0l-1.9,3.4l-2,1.2l-1.1,2l-0.1,1.8l-0.8,1.9l-1,0.5l-1.7,2.1l-1,2.3l0.2,1.1l-1,1.7
						l-1.1,0.9l-0.1,1.5l-0.1,1.3l1.6,1.4l0.8,1.5l-0.3,1.6l0.4,1.6l0.3,3.1l-0.4,2.9l-0.8,1.5l0.3,1.7l-0.7,1.6l-1.4,2.2l-1.3,0.6
						l1.5,1.1l1.2,2.4l-0.4,1.3l0.5,2.3l0.2,0.6l0.9,0.6l0,0.5l0.7,0.9l1.3,0.2l1.6,1.3l0.9,0.5l0.4,0.7l0.3,1.3l0.7,0.6l0.8,0.4
						l1.2,1.2l1.3,1.8l0.4,2.2l0.5,1.1l1.5,1.6l2.1,1.2l0.8,0.2l2,1.9l2.5,1.6l2.7,2.3l3.1,1.4l0.8,0l0.6,0.1l2.9-1.1l2.1-0.9
						l3.5-0.5l1.9,0l2.1,0.6l1.3,0l2.6,0.8l2.7-0.9l1.7-1l4.7-1.7l2.4-0.6l2.5-0.4h2.6l2.2,0l2.1,2l1,2.1l1.6,1.9l2.4,0.1l1.1-0.7
						l1.1,0.1l3.1-1.1l0,0.8l0.8,0.4l0.6,1.3l1.4,0.5l1.2,2l-0.4,2.3l-1,3.3l0.6,0.4l-0.6,2.2l-0.7,2.1l-0.6,1l-0.1,1l1.8,3.1l2,2.4
						l3.1,3l2.4,3.1l1.2-1.3l-1.2,1.3l0.8,2.2l0.4,0.9l1.2-0.4l0.9,0.1l1-0.4l8.8,0l-8.8,0l-1,0.4l-0.9-0.1l-1.2,0.4l-0.3,0.6
						l1.5,1.9l0.6,2l0.9,2.9l-0.9,1.2l-0.2,0.6l0.7,1.8l0.8,1.8l0.9,1.1l0.2,1.7l-0.3,2.2l-1,1.3l-1.7,2l-0.7,1.2l-1,2.7l-0.2,1.3
						l-1,2.8l-0.4,2.7l0.3,1.9l0,0l0.2,2.3l2.4,3l0.6,2l1.6,3.8l1.5,2.6l1.2,1.3l0.4,1.7l0.1,3.9l1,5l0.7,2.4l0.7,3.2l1.2,2.4
						l2.2,2.5l0,0l2.1,4.4v0l1.5,2.9l1.9,3.2l0.1,2.7l-1,0.6l1,2.4l0,2.1l0.4,1l0.1-0.5l1.3,1.6l1,0.1l1.3,1.3l1.4-0.1l1.8-1.4
						l2.5-0.6l3.1-1.4l1.2,0.2l1.8-0.4l3.2,0.7l1.5-0.7l1.8,0.5l0.4-1l1.5-0.2l3.1-1.4l2.2-1.6l2.1-2.1l3.4-3.6l1.7-2.5l0.8-1.8
						l1.3-1.7l0.6-0.5l2-1.7l0.8-1.5l0.3-2.8l0.7-2.4h0h0l0.3-1.7l-0.8-0.2l-0.3-1.4l1.3-1.2l3.6-1.8l2.4-1.1l1.2-1.2l0.4-1.3
						l-0.7-0.6l0.5-1.5l0.1-3.1l-0.5,0.2l0-1l-0.6-1.9l-1.4-2.4l0.3-2.3l1.2-0.7l2.1-2.2l1.1-0.6l3.4-3.3l3.3-1.5l2.7-1.2l1.9-1.9
						l1.2-2.1l0.9-2.2l-0.5-1.5l-0.1-4.8l-0.4-2.7l0.1-3l-0.5-1.3l-1.1-0.7l-1.2-3l-1-1.9l0.2-1.4l-0.2-0.9l0.8-1.8l-0.1-0.8
						l-1.9-1.1l-0.2-1.7l1.4-3.7l1.2-1l0.6-2l1-1.2l0.4-2.1l1.1-0.2l0.7-1.2l2.1-1.2l0.7-0.7l0.7-1.5l3.3-3.6l2.8-2.3l4.5-2.9l3-2.4
						l3.5-4l2.5-3.3l2.6-4.4l1.8-3.8l1.4-3.3l0.8-3.2l0.6-1.1l0-1.6l0.3-1.8l-0.1-0.8l-1.1,0l-1.4,1l-1.6,0.3l-1.4,0.4l-0.9,0.1
						l-1.7,0.1l-1.1,0.6l-1.5,0.2l-2.6,0.9l-3.2,0.4l-2.8,0.8l-1.5,0l-1.3-1.3l-0.6-1.2l-1-0.6l-1.3-0.8l1.7-0.7l0.1-1.3l-0.7-0.9
						l-1.5-0.9l-0.9-1l-1.6-1.8l-1.7-1.7l-4-2.9l-1.6-1.5l-0.8-2.8l-1.7-3.6l-1.6-1.1l-1.1-0.8l-1.1-3.7l-0.4-3.2l0.6-0.6l-1-3.1
						l-0.5-0.7l-3.5-2.9l-0.1-2.1l0.6-0.6l-2.7-3.6l-1-1.8l-1.1-1.8l-2.2-5.2l-1.8-3.4l-1.2-3.6l0.3-0.3l2.1,4.9l1.3,1.5l1,1.1
						l0.7-0.6l0.8-1.7l0.6-2.5l0.8-1.4l0.1,0.5l-0.4,1.4l-0.1,1.2l-0.5,1.8l1.5,0l1.5,2.3l1.8,2.7l1.2,2.5l0.9,0.7l0.8,1.7l-0.2,0.7
						l1,1.9l1.6,0.7l1.4,1.3l1.7,3.6l-0.1,1.9l0.3,2.2l2,3l1.3,0.5l2.1,2.2l0.8,2.6l1.6,2.6l1.5,1.1l0.2,1.2l0.9,0.9l0.4,1.3
						l0.1,1.3l-0.4,0.6l0.3,1.4l-0.6,0.1l0.9,1.3l0.6,2.2l0.5,0.9l-0.1,1.7l0.8,1.8l2.1,0.1l1-0.4l1.5,0.1l0.5-0.8l0.8-0.2l0.6-0.8
						l0.8-0.2l2.5-0.2l1.9-0.6l1.7-1.3l0.9,0.2l1.3-0.2l2.7-2.2l4.7-1.4l3-1.3l0.1-1l0.6-1.4l2.2-0.8l0,0l1.4-0.2l2-1l1.6,0.3
						l1.4-0.9l0-1.3l1.2-0.8l1.8,0l0.7-0.7l0.3-1.5l1.9-1.2l1.4,0l0.3-0.4l-0.4-2.1l0.5-1.6l0.6-0.8l1.3,0.2l1.1-2.2l1.2-1.1
						l0.5-0.9l1.1-1.9l0-0.7l-1.1-0.4l-0.8-1.1l-1.3-1.8l-1.8-0.6l-2.2-0.4l-1.7-1.2l-1.3-2.2h0l-0.4-2.6l-0.6-1.1l-1.9,2l-2.2,2.1
						l-2,2.2l-1.8-0.1l-2.5-0.1l-2.3,0.5l-0.1-0.9l-0.5,0.2l-0.6-1.2l0.6-1.9l-0.1-1.9l-0.9-1l-0.8,0.4l-0.8,1.7l0.2,2.4l-0.4-0.8
						l-0.4-1.1l-0.8-0.9l-0.4-1.1l0.3-1.1l-0.2-1.4l-2-1.4l-0.5-1.2l-1.5-0.8l-1.2-2.9l-1-2.6l0.3-0.8l-0.6-1.5l1.8,0.2l1.1-1.3
						l1.9,1.1l1.6-0.6l2.2,4.5l2,3.2l2.9,1l3,2.6l3.6,1.1l3-1.6l2.3-0.6l1.4,0.6l1.3,4l3.3,0.4l3.2,0.8l5.6,1l4.2-0.5l4.8-0.1
						l5.5-0.6l2.3,2.5l0.9,2.3l2.2,0.8l3.5,2.7l0.9,1.3l-1.4,1.2l3.9,3.9l2.1,0.4l4.3-1.9l0.6,3l0,3.8l0.9,4l1.2,6l2.7,4.2l0.5,1.9
						l0.7,3.8l1.6,2.9l1,1.4l1.1,3l1.4,4.2l2.8,2.8l1.2-0.9l1-2l2.7-0.9l-0.9-1l1.3-2.3l1.5-0.1l0-5.1l1.3-2.9l-0.2-2.5l-0.6-4
						l0.9-2.3l1.4-0.2l2.7-1.1l1.5-0.8v-1.4l3-2l2.2-2l3.3-3.7l4.3-2.1l1.6-1.9l-0.2-2.4l3.7-0.7l2,0l0.4-1.2l1.1,0.3l0.8,0.3
						l0.4-0.6l1.3,0.6l0.9-1.8l-0.3-1.3l2.7,0.1l1.2,1.9l0.6,1.5l0.2,1.6l0.8,1.7l2.1,2.6l1.7,0.4l-0.4,1.1l2.3,3.6l0.6,2.9l-1,3.8
						l1.8,0.7l1.7,0.3l3.4-2.2l2-1.5l1.3,2.5l0.5,3.9l1,3.7l1.2,1.6l-0.2,3.3l1,1.8l-0.9,2.3l0.3,2.2l-0.9,2.9l-0.3,1.9l0.6,1.7
						l0.5-1.8l1.4,1.4l1.6,1.7l0.5,1.5l1.2,1.1l0.5-0.5l2.4,1.3l-2.4-1.3l-0.5,0.5l0.7,1.3l-0.3,2.2l1.1,1.6l0.4,2.5l1.7,2l0.3,1.5
						l3.5,2.3l2.8,2.2l2.1-0.2l0.1-1l-1.2-2.6l-1-0.8l-0.2-1.8l-0.3-1l0.3-1.3l-0.2-2l-1.3-2l-1.8-1.8l-0.7-0.3l-0.8,1l0.8-1
						l-1.5-1.5l-1.8-0.4l-1.7-1.7l-0.5-2.6l-1.2-2.7l-1.9-0.1l-0.2-2.2l1-2.7l1.6-4.4l0.2-3.3l2.6,0l-0.4,2.4l2.5-0.1l2.7,1.4
						l1.5,3.1l1.2,1.6l2.5,0.4l2.2,1.7l-0.8,2l1.1,1.9l3.7-2.8l2.4-2.5l3.4-1.9l2.5-2l0.4-5.3l-1.4-5.6l-1.8-2.5l-2.7-1.9l-2.8-4.1
						l-2.3-3.3l0.7-2.2l2.5-3l4-2.7l-3-0.8l0,0l3,0.8l1.4-0.5l4,1l-0.7,1.2l0.8,2.3l1.6-0.2l1-3.3l3.1-0.5l4.2-1.6l1.7-1.6l1,1
						l1.8-1.4l3.3-0.4l4.1-2.7l4.1-3l2.8-3.9l2.4-4.3l2.2-3.6l1.7-0.3l0.8-2.7l0.5-2.8l-1.7-1.1l-0.7-1.8l1.9-0.9l0.1-2.6l-2-2.7
						l-1.8-3.2l-1.2-3.5l-3.2-2l1.5-2.5l2.9-1.8l1.4-2l4.2-1l-0.5-2l-1.9-0.1l-2.6-1.5l-3.3,2.7l-2.4-1.1l-0.1-1.7l-2.4-0.6
						l-1.6-2.6l1.5-1.8l2.9-0.2l1.8-2.5l3.4-2.7l2.6-1.4l1.6,2l-2.4,2.6l0.6,1.5l-1.6,1.8l3.2-1l2.2-1.8l4.2-1.1l2.4-2.5l3.3-2.1
						l1.3-1.8l-1.3,1.8l-3.3,2.1l-2.4,2.5l1.4,1l1.7,0.4l0.2,0.6l-0.8,2.1l0.3,0.7l-0.7,0.4l-0.8,1.7l0.8,0.6l0.8,0.3l0.1,0.7
						l0.9-0.3l0.4-0.7l1.4,0.7l2,3.2l-2.2,0.6l1.3,3.8l-0.6,2.7l0.3,2l2.7-0.3l2.4-1.5l2.7-0.7l1.1-2l0-4.2l-0.7-2.4l-2.6-4.4
						l-1.7-1.7l-1.2-0.6l0.3-0.4l0.1-1.7l1.3-1l2-0.6l1.1-1.1l0.5-0.7l1.5-0.9l-0.1-2.8l0.9-1.4l1.3-1.3l1.1,0.2l-0.4-0.7l0-2l0,0
						l0,2l0.4,0.7l0.5-1.3l4-3l1.9,2l1.9-0.1l4-2.4l1.9-2.4l4-4.8l4-4.9l1-3l4.5-6.4l1.3-7.3l0.3-5.6l2.3-4.8l-0.1-4.2l-4.3-5.5
						l-3.3-0.3l-1.9,2.5l-2.9-1.1l-1.5-3.2l-4.7-0.6l11.4-12.5l9.6-11l9.8-1.7l9.1,1l3.7-2.9l4.6,0.9l-0.2,4.2l4.6-0.6l6.6-1.5
						l-2.5-3.6l7.4-10.1l7.7-2.1l2.4,7.6l7.5-6.8l1.8-5.2l3.6-0.5l-2.4,8.9l-5.3,4.9l-5.1,6.1l-5.3,7.2l-4.6,1.3l-0.2,2.6l-2.5,3.3
						l-1.4,7.4l1.7,11.3l1.3,7.1l1.1,3.3l4.3-4.4l0.9-4.9l4.4-1.2l1-5.7l5.2-2.6l-1.2-2.2l1.3-4.4l2.8-0.2l0.4-7.9l-3.4-1.2
						l-0.1-2.3l3.6-5.5l1-3.9l4,0.8l2.9-2.5l1.4,2.2l7.7-4.7l4.2,4.1l1.1-2.7l4.3-3.7l4.5-4.4l2.6-0.7l8.3-4.8l5.5,1.4l0.8-1.7
						l-0.4-2.7l-1.4-1.8l-1.8-5.5l-2.7-3.7l3.8,0.5l3.8-3.1l0,0l1.7-3l-1.3-3.4l3.6-1.7l-0.6,2.7l1.6,2.5l3.4-0.9l3,1.2l0.7,3.1l4,2
						l2.3,2.4l2.8,0.2l1.2-1.4l0.1-6.9l4.9-0.7l2.9-3.2l-5.9-6.9l-8.1-1.1l0.7,5.5l-2-1.8l0.3-4.7l-7.8-7.8l-7.3-6.2l-4.2-3.7
						l-8.5-4.1l-6.2,0.5l-9.5-2.4l-1.3,3.8l2.4,5.4l-3.7,2.6l-5.2-7.4l-5.6,0.9l-5.6-1.7l-5.3,0.2l-4,1.7l-3.7-2.4l0.4-6.4l-2.5-3.7
						l-5.9-1.5l-12,1.7l-7.8-7.1l-2.5-5.7l-26.8-6.4l-3.9,4.3l2.1,8.9l-4.9-1.3l-2.2,2.6l-5.8-2.9l-5.1,2.5l-4.8-4.2l-2.9,9.7
						l-4.7-3.7l-3.7-7.4l1.8-4.1l-1.4-6.4l-4.8-5.5L899,434l-6.3-1.8l-0.2,7.9l-12.4-1.5l-0.7-4.9l-9.5-1.8l-4.7,1.7l-1.3,2.7
						l-1.5-6.8l-2.7,2l-4.4-2.7l-3.7-1.5l2.2-3.3l7.8-6.3l3.3-3.4l0.7-6.2l-2.4-4.6l-6.7-6.2l-8.7-0.2l-2.7,3.1l-0.8-6.4l-6.7-2
						l4-3.3l-5.1-4.5L829.5,389.7z M611,481.7l0.4-5.7l1.3-5.9l-3.4-3.1l3.5,3.1l-1.3,5.9l0,0L611,481.7l4.6,5.3l0,0L611,481.7z
						 M589.6,473.4L589.6,473.4l3.3,4.4l0,0L589.6,473.4z M580,480L580,480l5.6,1.3v0L580,480z M612.8,492.8L612.8,492.8l3.5,8.4
						l0,0L612.8,492.8z M614.3,507.3L614.3,507.3l2.7,5.1L614.3,507.3z M563.9,513.4l2.9,0.1l0,0L563.9,513.4z M607.6,553.7
						L607.6,553.7l1.4,1.2l0,0L607.6,553.7z M609.3,557.6l0-0.6L609.3,557.6l0.6,2L609.3,557.6z M610.2,560.8L610.2,560.8l3.1,1.3
						l0,0L610.2,560.8z M613.8,563.4l1.6-0.6l2.9,1.3l0,0l-2.9-1.2L613.8,563.4L613.8,563.4z M707.7,573.7l1.4-1.7l11.1-1.8l1.5-1.3
						l7.4-1.9l2.7-2.2l5.3,1.1l0.9,5.3l3.1-1.2l3.8,1.7l-0.2,2.7l2.9-0.3l7.4-4.8l-1.1,1.5l1-1.5l-7.4,4.8l-2.9,0.3l0.2-2.7
						l-3.8-1.7l-3.1,1.2l-0.9-5.3l-5.3-1.1l-2.7,2.2l-7.4,1.9l-1.5,1.3L709,572L707.7,573.7L707.7,573.7z M594.1,567.7l-0.3,1.4
						L594.1,567.7z M619.7,571.3l-1.9-3.3l0,0L619.7,571.3l1.2,0.9l0,0L619.7,571.3z M593.8,569.1l0.2,1.3h0L593.8,569.1z
						 M588.6,570.5L588.6,570.5L588.6,570.5L588.6,570.5z M757.7,575l-3.8-3.9l0,0L757.7,575l6.7,12.3l0,0L757.7,575z M622.8,574
						l-2-0.9l0,0L622.8,574l0.8,1.3l0,0L622.8,574z M914.5,597.2l-3.5-3.2l-5.2-1.5l-1.1-4.6l-1-2.9l-1.1-2.1l-1.8-4.9l-2.6-1.8l0,0
						l2.6,1.8l1.8,4.9l1.1,2.1l1,2.9l1.1,4.5l5.2,1.5L914.5,597.2l1.2,4.2h4.5l2.6-1.8l4.9-1.6l-1.6,4l0,0l1.6-4l-4.9,1.3l-2.6,1.8
						h-4.5L914.5,597.2z M707,578.4l2.8-1.3l0,0L707,578.4L707,578.4z M704.7,582.1l2.8-2.3l0,0L704.7,582.1L704.7,582.1z
						 M626.8,580.3l1.9,2.7l0,0L626.8,580.3l-3.1,0.5l-0.9-0.2l-0.8,1.1l-1.1-0.2l0,0l1.1,0.2l0.8-1.1l0.9,0.2L626.8,580.3z
						 M820.2,581.7l3.3,2l2.7,0.6l3.5,1.2l0.6,3.5l4.2,2l2.8-0.9l3.8-0.6l3,0.6l2.9,2.2l1.8,2.3l2.8,0l3.7,0.7l2.7-1.1l3.9-0.8
						l4.4-3.2l1.8,0.5l1.6,1.6l3.5-0.4l0,0l-3.5,0.4l-1.6-1.5l-1.8-0.5l-4.4,3.2l-3.9,0.8l-2.7,1.1l-3.7-0.7l-2.8,0l-1.8-2.3
						l-2.9-2.2l-3-0.6l-3.8,0.6l-2.8,0.9l-4.2-2l-0.6-3.5l-3.5-1.2l-2.7-0.6L820.2,581.7l-0.8,1.2L820.2,581.7z M671.2,588.5
						l6.1-5.1l4.6-0.1l6.5,3.3l3.5,1.9l3.2-2l4.7-0.1l3.8,2.4l0,0l-3.8-2.4l-4.7,0.1l-3.2,2l-3.5-1.9l-6.6-3.3l-4.6,0.1L671.2,588.5
						l-0.4,3.4l-3.1-2.7l0,0l3.1,2.7L671.2,588.5z M630.6,585.7l-2.4-0.2l-0.2-1.5l0,0l0.2,1.5L630.6,585.7l1.1,2l0,0L630.6,585.7z
						 M765.9,584.9L765.9,584.9l4.1,2.7l4.3-1.2l1.6,0.8l1.4,2.7l2.1,0.9l1.3,2l3.8-0.6l1.6,2.8l1.2-0.4l3.1-0.8l0,0l-3.1,0.8l0,0
						l-1.2,0.4l0,0l-1.6-2.8l-3.8,0.6l-1.3-2l-2.1-0.9l-1.4-2.7l-1.6-0.8l-4.3,1.2L765.9,584.9z M704.6,587.4l4.2,0.2l0,0
						L704.6,587.4l-0.7,1.2L704.6,587.4z M796,589.8l4.5-2.2l2.6,1.4l3.1,0.1l2,2.2l3,0.2l4.3,1.2l2.3-2.6l-2.3,2.6l-4.3-1.2l-3-0.2
						l-2-2.2l-3.1-0.1l-2.6-1.4L796,589.8L796,589.8z M631.6,588.7L631.6,588.7l3.8,1.6l2.3-0.7l1.8,2.2l1.7-0.1l4.4,1.5l0,1.3l0,0
						l0-1.3l-4.4-1.5l-1.7,0l-1.8-2.2l-2.3,0.7L631.6,588.7z M665.4,594.3l2.2-4.7L665.4,594.3L665.4,594.3z M873.2,591.9
						L873.2,591.9l3.6,1.7l0,0L873.2,591.9z M594.2,595.8l-0.8-2L594.2,595.8L594.2,595.8z M664.6,598.6l1.7-3.4l0,0L664.6,598.6
						L664.6,598.6z M593.5,595.5l0.5,0.2L593.5,595.5l-0.8,1.2L593.5,595.5z M784.3,597.3l-0.5,0.7h0L784.3,597.3z M644.7,598
						l0.4,1.3l0,0L644.7,598z M781.2,602.8l0.1-4.4l0,0L781.2,602.8l-1.6,2h0L781.2,602.8z M547.9,602.8l0.8-0.8l0.4-3.2l-0.4,3.2
						L547.9,602.8L547.9,602.8z M877,600.3l-2,1.4l-0.3-0.1l0.3,0.1L877,600.3z M599,600.5l1.4,1.1l0,0L599,600.5z M870.4,601.6
						l1.7-0.6l0,0L870.4,601.6L870.4,601.6z M879.7,601.5l2.7,3.1v0L879.7,601.5z M546.5,602.4L546.5,602.4l0.1,1.1l0,0L546.5,602.4
						z M773.6,603.4L773.6,603.4l-2.1,7.7l0,0L773.6,603.4z M544.4,606l2.1-2.3L544.4,606l0,1.9l0,0L544.4,606z M923.9,608.6l1-4.7
						l0,0L923.9,608.6l-2,4.1L923.9,608.6z M559.7,605.1l2.9-0.8l0,0L559.7,605.1l-0.3,0.9l-1.8-0.6l-0.2,1.8l-1.3,0.7l-2.2-0.5
						l-0.6,1.7l-1.4,0.1l-0.5-0.7l-1.7,1.4l-1.4,0.2l-1.3-0.9l-0.1,1.2l0.9,1.6l-1,1.3l0.8,3.2l0,0l-0.8-3.2l1-1.3l-0.9-1.6l0.1-1.2
						l-1-1.9l-0.7,0.3l0.8-0.4l1,1.9l1.3,0.9l1.4-0.2l1.7-1.4l0.5,0.7l1.4-0.1l0.6-1.7l2.2,0.5l1.3-0.7l0.2-1.8l1.8,0.6L559.7,605.1
						z M671.2,604.5L671.2,604.5l-0.1,0.9L671.2,604.5z M675.2,606.5l3.4-1.9l2.5,1.1l3-0.2l0.5,2.7l-0.5,4.2l-2.6-0.6l-2.5,0.7
						l-0.1,3.1L676,615l0.1,1.4l1.6,1l1.3,3.7l3.4,1.4l0.6,1.4l-0.7,1.7l0.2,1l0.9,2.6l0.3-2.9l2.4-1l0.8,2.3l2.2,2.4l-2.6,1.3
						l-2.8-1l-0.7,3.3l2,0.2l-0.8,2.6l2.3,1.3l-0.4,4l0.5,2.6l-0.3,0.9l-4.6,1l-4.2-0.6l-2.1-1.9l-2.8-0.8l-0.9-2.8l-0.7,0.2l0,0
						l0.7-0.2l-0.1-1.9l1.1-0.9l0.5-1.3l0.5-3l2.4-0.3l-0.9-1l-1.4-0.2l-1.5-2.8l-1.6-2.1l-3.2-4.7l0.3-2.8l-2.7-3.9l3-4.3l2.9-0.7
						l1.3-2.5l0,0L675.2,606.5z M863.6,614.1l3-2.2l4.5-1.6l2.2-2.8l2.1-1.2l-2.1,1.2l-2.2,2.8l-4.5,1.6L863.6,614.1L863.6,614.1z
						 M612.9,606.9l0.3,0.6L612.9,606.9l-0.6,0.4L612.9,606.9z M838.4,627.2l3.4-2.1l4.8-1.4l4.5-0.2l3.5-1.4l2.1-2.2l2.1-1.4
						l-0.5-1.4l-0.9-1.6l1.6-2.7l0,0l-1.6,2.7l1,1.6l0.5,1.4l-2.1,1.4l-2.1,2.2l-3.5,1.4l-4.5,0.1l-4.8,1.4L838.4,627.2L838.4,627.2
						z M916.6,617l-0.8-3.6l0,0L916.6,617l-0.4,4.8l0,0L916.6,617z M764.1,613.7L764.1,613.7l2.7,7.2l0,0L764.1,613.7z M765,624.2
						l-0.2-2.3l0,0L765,624.2l-0.4,0.9l0,0L765,624.2z M816,622.6L816,622.6l-3.3,0.1L816,622.6z M657,623.4l1.8-0.6l0,0L657,623.4
						L657,623.4z M822.2,623.5l3.9-0.6l0,0L822.2,623.5L822.2,623.5z M659.7,623l1.9,0.6l0,0L659.7,623z M662.5,625.2l-0.5-0.9
						L662.5,625.2l1.9,0.9l0.8,0.1l-0.8-0.1l0,0L662.5,625.2z M907,625.6l2.9-1.1L907,625.6L907,625.6z M604.1,626.4L604.1,626.4
						l3-1.3l2,0.4l-2-0.4L604.1,626.4l1.4,0.9L604.1,626.4z M904.8,627.6l-1.4-1.2l0,0L904.8,627.6l2.6,0.1l0,0L904.8,627.6z
						 M599.3,627.3l2.1,1.4l2.7-0.4l0,0.1l-2.7,0.4L599.3,627.3l-2.4,1.1l-2.2-0.1l-0.6,0.1l-0.5,0.7L592,629l-1.1,0.9l-1.9,0.3
						l0-0.1l1.9-0.3l1.1-0.9l1.6,0.1l0.5-0.7l0.6-0.1l2.2,0.1L599.3,627.3z M759.9,627.3L759.9,627.3l-1,1.6l0,0L759.9,627.3z
						 M663.1,629.1l-1.1-0.6L663.1,629.1l1.6,0.2l0,0L663.1,629.1z M753.9,631.8l1.1-2.5l0,0L753.9,631.8L753.9,631.8z M660.7,629.6
						L660.7,629.6l1.1,0.7l0,0L660.7,629.6z M587.9,631.8l1-0.6l0,0.1L587.9,631.8L587.9,631.8z M661.3,631.3L661.3,631.3l1.6,1.3
						L661.3,631.3z M657.5,635.7l2-1.1l-1.2-1.1l1.2,1.1L657.5,635.7l0.8,3.6L657.5,635.7z M663.3,634.9l-1.3-1.1v0L663.3,634.9
						l1.3,0.6v0L663.3,634.9z M659.6,634.6l0.5,1.4l1.5,1.8l2,0.5l-2-0.5l-1.5-1.8L659.6,634.6L659.6,634.6z M664.7,638.2l3.5-2.8
						l1.1-0.3l0,0l-1.1,0.3L664.7,638.2L664.7,638.2z M669.4,635.2l0.8,1l0,0L669.4,635.2z M662.4,635.5l0,0.6L662.4,635.5z
						 M745.4,635.7l0.8,3.5l1-0.4l1.8,0.9l0,0l-1.8-0.9l-1,0.4L745.4,635.7z M669.1,638.1L669.1,638.1l1.7,1.8L669.1,638.1z
						 M659.5,644.2l-1.6-3l0.6-1.2l0,0l-0.6,1.2L659.5,644.2l-1.4,0.6l-1.1-0.9l-3.5-0.5l-1.3,0.6l-3.4,0.6l-1.6-0.1l0,0l1.6,0.1
						l3.4-0.6l1.3-0.6l3.5,0.5l1,0.9L659.5,644.2z M749.8,644.3L749.8,644.3l2.2,1.7l0,0L749.8,644.3z M639.9,645.2l1.6,0.7
						L639.9,645.2l-3.3,1l-1-0.7l-0.2,2.1l-0.8,0.8l-0.8,0.8l0.8-0.8l0.8-0.8l0.2-2.1l1,0.7L639.9,645.2z M752.9,648.9L752.9,648.9
						l4.9,1.5l0,0L752.9,648.9z M761,658.1l0.8,1.2v0L761,658.1z M763.4,666.7l-2.9-2.2l-0.8-3.9l0,0l0.8,3.8L763.4,666.7l4.1,2.4
						l1.2-0.8l2.4,1.1l3,2.2l1.7,0.5l1,1.6l2.3,0.7l2.4,1.5l3.4,0.8l3.5,0.3l1.1-0.4l-1.1,0.4l-3.5-0.3l-3.4-0.8l-2.4-1.5l-2.3-0.7
						l-1-1.6l-1.7-0.5l-3-2.2l-2.4-1.1l-1.2,0.8L763.4,666.7z M812.1,671.6l1.4,2.1L812.1,671.6l-0.7,0.5L812.1,671.6z M807.5,672.2
						l2.5,0.8l0,0L807.5,672.2z M812.5,675.1L812.5,675.1l3.2,0.5l1.7-0.3l1,2l1.3,0.8v0l-1.3-0.8l-1-2l-1.7,0.3L812.5,675.1z
						 M793.9,675.5L793.9,675.5l2.1,0.8L793.9,675.5z M790.1,676.2L790.1,676.2l0.3,2.6l0,0L790.1,676.2z M692.3,688.8L692.3,688.8
						l0.5,0.4l0,0L692.3,688.8z M816.5,690l3.1-0.5l0,0L816.5,690L816.5,690z M836.9,693.5l2.5-1.7l1.4,1.2l2.7,0.6l0,0l-2.7-0.6
						l-1.4-1.2L836.9,693.5l-2.9,0.4l-2.4,0l-1.6,0.8l-1.5,0.5l0.4,3.6l-1.6-0.1l0,0l1.6,0.1l-0.4-3.6l1.5-0.5l1.6-0.8l2.4,0
						L836.9,693.5z M820.3,692.5L820.3,692.5l1.9,0.6l0,0L820.3,692.5z M843.1,695.4L843.1,695.4l0.1,0.1L843.1,695.4z M823.6,696.9
						l-2.2-1.2l0,0L823.6,696.9l1.3,0.6l2.2-0.9l0,0l-2.2,0.9L823.6,696.9z M627.4,734.7v-0.4l0,2.7L627.4,734.7z M829,745.6
						L829,745.6l-2,0.4L829,745.6z M577.3,785.2l-0.7-1l-0.8-1.8l0.9,1.8L577.3,785.2l1.1,1.6l0,0L577.3,785.2z M587.7,783.4
						L587.7,783.4l-0.2,1.1h0L587.7,783.4z M591.5,791.1l-0.2-1.8l0.4-1.8l-0.6-1.2l-0.1-1.9h0l0.1,1.9l0.6,1.2l-0.4,1.8
						L591.5,791.1l1,1.1v0L591.5,791.1z M596.2,795.2l1.4,0.2l0.3,0.9l0,0l-0.3-0.9L596.2,795.2l-1.8,0.5l-1.3-0.1l-0.7,0.3v0
						l0.7-0.3l1.3,0.1L596.2,795.2z M597.5,797.8L597.5,797.8l0.5,1.4l0,0L597.5,797.8z M597.6,800.3L597.6,800.3l0.3,1h0
						L597.6,800.3z M593.5,813.6l-2-2.5v0L593.5,813.6l1.9,1.9l0,0L593.5,813.6z M620.8,840.8l0.5-3.6l-0.8-2.3l-1.4-4.5l0,0
						l1.4,4.5l0.8,2.3L620.8,840.8l0.3,1.2l-1.5-0.6l-0.9,0.2l-0.3,1l-0.8,1.2l0,1.1l0,0l0-1.1l0.8-1.2l0.3-1l0.9-0.2l1.5,0.6
						L620.8,840.8z M587.9,844.1l0.3-2l0,0L587.9,844.1L587.9,844.1z M617.7,845l1.8,1.8l0,0L617.7,845z M606.7,855.5l0.4-0.6
						L606.7,855.5l2.2,2.6l0,0L606.7,855.5z M610.6,856.7l1.6-0.5l0,0L610.6,856.7L610.6,856.7z"/>
					<polygon id="Fill-216" class="st1" points="947.6,583.2 949.4,587.9 949.3,594 948.6,597.4 949,602.2 948.6,606.4 949.2,610 
						951.2,606.7 953.6,609.3 953.6,606.3 950.6,601.9 952.5,595.4 957.1,596.9 954,588.8 952.7,584.1 952.8,579.3 951.7,574.6 
						950.9,571.3 949.5,572 950.8,574.3 947.9,576.6 					"/>
					<polygon id="Fill-222" class="st1" points="1006.9,795.7 1005.3,795.3 1006.3,796.3 1008.1,796.3 1007.4,795.7 					"/>
					<polygon id="Fill-223" class="st1" points="1001.4,789 1000.6,788 997.9,786.6 996.3,785.9 995.8,786.2 997.1,787.2 
						998.9,788.3 1001.5,789.6 					"/>
					<polygon id="Fill-224" class="st1" points="1004.9,792.5 1005.3,792 1004.3,790.8 1003.3,788.7 1002.5,788.7 1003,790.2 					
						"/>
					<polygon id="Fill-225" class="st1" points="991.3,784 991.1,784.6 992.2,786 993.4,786.8 994,786.6 992.9,785.5 					"/>
					<polygon id="Fill-226" class="st1" points="1002.8,792.7 1000.8,792.5 1000.6,793.1 1001.2,793.3 1003.1,793.4 1004.4,793.4 
						1003.8,793 					"/>
					<polygon id="Fill-230" class="st1" points="732.9,930.1 730.9,928.6 730.7,929.6 730.3,931.6 730.3,934.3 735.1,934 
						735.9,931.7 735.8,930.8 					"/>
					<polygon id="Fill-231" class="st1" points="899.3,791.5 902.2,790 903.2,789.1 902.2,788.7 901.3,789.1 899.3,789.2 896.9,790 
						896.6,790.8 896.9,791.4 896.9,792.5 					"/>
					<polygon id="Fill-232" class="st1" points="342.3,733.9 344.5,733.5 344.6,731.1 344.1,731 342.5,731.4 342.6,732.7 
						341.8,733.6 					"/>
					<polygon id="Fill-233" class="st1" points="885.7,695.4 887.6,690.4 888.1,688.5 886.7,687.5 884.2,689.9 882.4,693 
						882.8,695.3 884.4,697.9 					"/>
					<polygon id="Fill-234" class="st1" points="63.9,701 62.4,700.8 62.1,701 62.1,701.1 62.5,701.3 63.2,701.7 64.6,701.6 
						64.9,701.3 					"/>
					<polygon id="Fill-235" class="st1" points="65.5,704.4 65,704.1 63.9,703.7 63.6,703.6 63.5,703.9 63.7,704.4 63.1,704.9 
						63,705.2 63.5,706.2 63.4,707 64.1,707.4 64.6,706.9 65.5,706.5 66.7,705.9 66.8,705.8 66,704.8 					"/>
					<polygon id="Fill-236" class="st1" points="59.2,700.2 60.1,700.3 60.2,700 59.3,699.8 					"/>
					<polygon id="Fill-237" class="st1" points="71.1,551.4 69.5,552.2 66.8,554.2 67.2,556.7 68.8,558 71.7,556 74.3,553.5 
						73.1,551.8 					"/>
					<polygon id="Fill-238" class="st1" points="56.8,697.9 56.4,698.2 56.4,698.3 56.6,698.8 57.1,698.9 57.2,698.9 57.3,698.8 
						56.9,698.1 					"/>
					<polygon id="Fill-240" class="st1" points="32.9,539.1 29.9,540.2 31.8,541.8 33.7,542.9 35.6,542 35.3,539.7 					"/>
					<polygon id="Fill-241" class="st1" points="53,697 52.7,697.3 52.6,697.5 53.3,697.9 53.5,697.7 53.5,697.1 					"/>
					<polygon id="Fill-242" class="st1" points="134.9,571.5 131.8,571.9 130.3,571.3 130.1,572.8 130.7,574.9 132.3,576.4 
						133.5,578.6 135.4,580.7 136.7,580.7 133.9,577 					"/>
					<polygon id="Fill-243" class="st1" points="1023.7,815.2 1024.2,814.6 1023.3,812.3 1023.3,813.4 					"/>
					<polygon id="Fill-244" class="st1" points="1021.4,808.5 1021.4,811.2 1021.6,812.1 1021.9,811.9 1022.3,812.3 1022.1,809.6 
											"/>
				</g>
			</g>
		</g>
	</g>
</g>
</svg>
