<svg version="1.0" xmlns="http://www.w3.org/2000/svg"
 width="1em" height="1em" viewBox="0 0 886.000000 981.000000"
 preserveAspectRatio="xMidYMid meet">

<g transform="translate(0.000000,981.000000) scale(0.100000,-0.100000)"
fill="currentColor" stroke="none">
<path d="M2385 9795 c-351 -65 -634 -348 -783 -783 -36 -107 -36 -107 -36
-277 0 -182 10 -248 60 -394 53 -153 169 -353 289 -497 261 -313 682 -627
1188 -887 l102 -52 -1530 -5 c-1507 -5 -1531 -5 -1564 -25 -56 -33 -90 -84
-101 -151 -13 -79 -13 -1989 0 -2068 11 -69 46 -119 106 -153 37 -21 51 -23
236 -23 l198 0 2 -2169 3 -2169 30 -43 c17 -23 50 -53 74 -66 l44 -23 3727 0
3727 0 44 23 c24 13 58 43 74 66 l30 43 3 2169 2 2169 190 0 c241 0 279 13
333 115 l22 40 3 1010 c2 635 -1 1034 -7 1074 -11 72 -44 122 -102 156 -34 20
-57 20 -1589 25 l-1555 5 95 55 c462 265 766 457 849 535 406 385 480 831 208
1248 -135 207 -284 316 -557 408 -79 26 -116 32 -215 37 -123 5 -274 -8 -400
-34 -263 -55 -594 -338 -818 -702 -112 -181 -228 -426 -297 -625 -13 -37 -27
-64 -30 -60 -4 5 -24 51 -44 103 -140 350 -517 1011 -726 1274 -77 97 -294
309 -410 401 -249 199 -605 300 -875 250z m340 -425 c96 -30 220 -93 280 -143
195 -160 327 -301 435 -462 361 -539 627 -1088 730 -1508 30 -120 58 -312 48
-322 -11 -11 -374 126 -608 230 -180 81 -448 220 -611 318 -547 329 -874 658
-991 997 -31 90 -33 102 -33 240 l0 145 42 93 c58 131 98 194 174 276 75 80
148 128 229 151 74 20 212 13 305 -15z m3361 -615 c167 -56 242 -110 323 -231
75 -111 95 -171 95 -284 0 -79 -4 -105 -25 -155 -35 -86 -91 -166 -178 -256
-82 -85 -137 -121 -591 -389 -534 -314 -1027 -566 -1054 -539 -8 8 50 285 90
434 137 510 341 924 576 1171 163 170 288 246 433 262 157 18 250 14 331 -13z
m-1866 -3065 l0 -800 -1900 0 -1900 0 0 800 0 800 1900 0 1900 0 0 -800z
m4220 0 l0 -800 -1900 0 -1900 0 0 800 0 800 1900 0 1900 0 0 -800z m-4220
-3240 l0 -2030 -1630 0 -1630 0 0 2030 0 2030 1630 0 1630 0 0 -2030z m3680 0
l0 -2030 -1630 0 -1630 0 0 2030 0 2030 1630 0 1630 0 0 -2030z"/>
</g>
</svg>
