<svg width="32" height="32" viewBox="0 0 32 32" fill="none" xmlns="http://www.w3.org/2000/svg">
    <path class="selected" fill="none" d="M5.5 16C5.5 24.6787 11.21 26.5 16 26.5C20.79 26.5 26.5 24.6787 26.5 16C26.5 7.32178 20.79 5.5 16 5.5C11.21 5.5 5.5 7.32178 5.5 16ZM18 18H14V14H18V18ZM17 15H15V17H17V15Z"></path>
    <path fill="currentColor" d="M16 2C6.97217 2 2 6.97217 2 16C2 25.0283 6.97217 30 16 30C25.0283 30 30 25.0283 30 16C30 6.97217 25.0283 2 16 2ZM28.9789 15.5H27.4824C27.3984 12.2675 26.5089 9.70026 24.8795 7.86157L26.0363 6.70447C27.7495 8.60583 28.8898 11.4152 28.9789 15.5ZM7.86157 24.8795C9.70025 26.5089 12.2675 27.3984 15.5 27.4824V28.9876C12.4362 28.9208 9.14545 28.21 6.70459 26.0363L7.86157 24.8795ZM16.5 27.4824C19.7328 27.3984 22.3001 26.5087 24.1388 24.8791L25.2957 26.0359C22.8548 28.2099 19.5639 28.9208 16.5 28.9876V27.4824ZM16 26.5C11.21 26.5 5.5 24.6787 5.5 16C5.5 7.32178 11.21 5.5 16 5.5C20.79 5.5 26.5 7.32178 26.5 16C26.5 24.6787 20.79 26.5 16 26.5ZM24.1388 7.12085C22.3001 5.49127 19.7328 4.60156 16.5 4.51764V3.01245C19.5639 3.07916 22.8547 3.78992 25.2957 5.96374L24.1388 7.12085ZM15.5 4.51764C12.2675 4.60156 9.70038 5.49115 7.86163 7.12042L6.70465 5.96344C9.14551 3.78979 12.4363 3.07916 15.5 3.01245V4.51764ZM5.9635 6.70471L7.12042 7.86163C5.49115 9.70038 4.60156 12.2675 4.51764 15.5H3.02106C3.11017 11.4153 4.25049 8.60614 5.9635 6.70471ZM3.02106 16.5H4.51764C4.60156 19.7328 5.49127 22.3001 7.12085 24.1388L5.96381 25.2955C4.25055 23.3941 3.11017 20.5848 3.02106 16.5ZM26.0359 25.2957L24.8791 24.1389C26.5087 22.3001 27.3984 19.7328 27.4824 16.5H28.9789C28.8898 20.5849 27.7493 23.3943 26.0359 25.2957Z"></path>
    <path class="unselected" fill="currentColor" d="M14 18H18V14H14V18ZM15 15H17V17H15V15Z"></path>
</svg>